<mxfile host="app.diagrams.net" agent="Mozilla/5.0 (Macintosh; Intel Mac OS X 10_15_7) AppleWebKit/537.36 (KHTML, like Gecko) Chrome/135.0.0.0 Safari/537.36" version="26.2.13">
  <diagram name="Page-1" id="0g9K2QcYfQXhICe-oHGK">
    <mxGraphModel dx="1826" dy="991" grid="1" gridSize="10" guides="1" tooltips="1" connect="1" arrows="1" fold="1" page="1" pageScale="1" pageWidth="850" pageHeight="1100" math="0" shadow="0">
      <root>
        <mxCell id="0" />
        <mxCell id="1" parent="0" />
        <mxCell id="2w3s3NBnuRrY-y5f0Wq8-3" value="Registrasi" style="rounded=1;whiteSpace=wrap;arcSize=50;strokeWidth=2;" parent="1" vertex="1">
          <mxGeometry x="965" y="80" width="93" height="39" as="geometry" />
        </mxCell>
        <mxCell id="2w3s3NBnuRrY-y5f0Wq8-4" value="Login" style="rounded=1;whiteSpace=wrap;arcSize=50;strokeWidth=2;" parent="1" vertex="1">
          <mxGeometry x="980" y="140" width="63" height="39" as="geometry" />
        </mxCell>
        <mxCell id="2w3s3NBnuRrY-y5f0Wq8-5" value="Lihat Daftar Lapangan" style="rounded=1;whiteSpace=wrap;arcSize=50;strokeWidth=2;" parent="1" vertex="1">
          <mxGeometry x="920" y="201" width="183" height="39" as="geometry" />
        </mxCell>
        <mxCell id="2w3s3NBnuRrY-y5f0Wq8-6" value="Lihat Detail Lapangan" style="rounded=1;whiteSpace=wrap;arcSize=50;strokeWidth=2;" parent="1" vertex="1">
          <mxGeometry x="928" y="261" width="181" height="39" as="geometry" />
        </mxCell>
        <mxCell id="2w3s3NBnuRrY-y5f0Wq8-7" value="Reservasi Lapangan" style="rounded=1;whiteSpace=wrap;arcSize=50;strokeWidth=2;" parent="1" vertex="1">
          <mxGeometry x="930" y="320" width="163" height="39" as="geometry" />
        </mxCell>
        <mxCell id="2w3s3NBnuRrY-y5f0Wq8-8" value="Cek Ketersediaan - Real time" style="rounded=1;whiteSpace=wrap;arcSize=50;strokeWidth=2;" parent="1" vertex="1">
          <mxGeometry x="903" y="377" width="231" height="63" as="geometry" />
        </mxCell>
        <mxCell id="2w3s3NBnuRrY-y5f0Wq8-9" value="Batalkan Reservasi" style="rounded=1;whiteSpace=wrap;arcSize=50;strokeWidth=2;" parent="1" vertex="1">
          <mxGeometry x="939.5" y="470" width="158" height="39" as="geometry" />
        </mxCell>
        <mxCell id="2w3s3NBnuRrY-y5f0Wq8-10" value="Pembayaran" style="rounded=1;whiteSpace=wrap;arcSize=50;strokeWidth=2;" parent="1" vertex="1">
          <mxGeometry x="955.5" y="540" width="112" height="39" as="geometry" />
        </mxCell>
        <mxCell id="2w3s3NBnuRrY-y5f0Wq8-11" value="Logout" style="rounded=1;whiteSpace=wrap;arcSize=50;strokeWidth=2;" parent="1" vertex="1">
          <mxGeometry x="975" y="610" width="73" height="39" as="geometry" />
        </mxCell>
        <mxCell id="2w3s3NBnuRrY-y5f0Wq8-12" value="Kelola Data Pelanggan" style="rounded=1;whiteSpace=wrap;arcSize=50;strokeWidth=2;" parent="1" vertex="1">
          <mxGeometry x="920" y="670" width="183" height="39" as="geometry" />
        </mxCell>
        <mxCell id="2w3s3NBnuRrY-y5f0Wq8-13" value="Kelola Data Lapangan" style="rounded=1;whiteSpace=wrap;arcSize=50;strokeWidth=2;" parent="1" vertex="1">
          <mxGeometry x="922" y="730" width="179" height="39" as="geometry" />
        </mxCell>
        <mxCell id="2w3s3NBnuRrY-y5f0Wq8-14" value="Kelola Data Reservasi" style="rounded=1;whiteSpace=wrap;arcSize=50;strokeWidth=2;" parent="1" vertex="1">
          <mxGeometry x="923" y="790" width="177" height="39" as="geometry" />
        </mxCell>
        <mxCell id="2w3s3NBnuRrY-y5f0Wq8-15" value="Kelola Pembayaran" style="rounded=1;whiteSpace=wrap;arcSize=50;strokeWidth=2;" parent="1" vertex="1">
          <mxGeometry x="931" y="860" width="161" height="39" as="geometry" />
        </mxCell>
        <mxCell id="2w3s3NBnuRrY-y5f0Wq8-16" value="Lihat Laporan Penyewaan" style="rounded=1;whiteSpace=wrap;arcSize=50;strokeWidth=2;" parent="1" vertex="1">
          <mxGeometry x="907.5" y="930" width="208" height="39" as="geometry" />
        </mxCell>
        <mxCell id="2w3s3NBnuRrY-y5f0Wq8-43" style="rounded=0;orthogonalLoop=1;jettySize=auto;html=1;exitX=0;exitY=0.3333333333333333;exitDx=0;exitDy=0;exitPerimeter=0;entryX=1;entryY=0.5;entryDx=0;entryDy=0;" parent="1" source="2w3s3NBnuRrY-y5f0Wq8-33" target="2w3s3NBnuRrY-y5f0Wq8-4" edge="1">
          <mxGeometry relative="1" as="geometry" />
        </mxCell>
        <mxCell id="2w3s3NBnuRrY-y5f0Wq8-51" style="rounded=0;orthogonalLoop=1;jettySize=auto;html=1;exitX=0;exitY=0.3333333333333333;exitDx=0;exitDy=0;exitPerimeter=0;entryX=1;entryY=0.5;entryDx=0;entryDy=0;" parent="1" source="2w3s3NBnuRrY-y5f0Wq8-33" target="2w3s3NBnuRrY-y5f0Wq8-11" edge="1">
          <mxGeometry relative="1" as="geometry" />
        </mxCell>
        <mxCell id="2w3s3NBnuRrY-y5f0Wq8-52" style="rounded=0;orthogonalLoop=1;jettySize=auto;html=1;exitX=0;exitY=0.3333333333333333;exitDx=0;exitDy=0;exitPerimeter=0;entryX=1;entryY=0.5;entryDx=0;entryDy=0;" parent="1" source="2w3s3NBnuRrY-y5f0Wq8-33" target="2w3s3NBnuRrY-y5f0Wq8-12" edge="1">
          <mxGeometry relative="1" as="geometry" />
        </mxCell>
        <mxCell id="2w3s3NBnuRrY-y5f0Wq8-53" style="rounded=0;orthogonalLoop=1;jettySize=auto;html=1;exitX=0;exitY=0.3333333333333333;exitDx=0;exitDy=0;exitPerimeter=0;entryX=1;entryY=0.5;entryDx=0;entryDy=0;" parent="1" source="2w3s3NBnuRrY-y5f0Wq8-33" target="2w3s3NBnuRrY-y5f0Wq8-13" edge="1">
          <mxGeometry relative="1" as="geometry" />
        </mxCell>
        <mxCell id="2w3s3NBnuRrY-y5f0Wq8-54" style="rounded=0;orthogonalLoop=1;jettySize=auto;html=1;exitX=0;exitY=0.3333333333333333;exitDx=0;exitDy=0;exitPerimeter=0;entryX=1;entryY=0.5;entryDx=0;entryDy=0;" parent="1" source="2w3s3NBnuRrY-y5f0Wq8-33" target="2w3s3NBnuRrY-y5f0Wq8-14" edge="1">
          <mxGeometry relative="1" as="geometry" />
        </mxCell>
        <mxCell id="2w3s3NBnuRrY-y5f0Wq8-55" style="rounded=0;orthogonalLoop=1;jettySize=auto;html=1;exitX=0;exitY=0.3333333333333333;exitDx=0;exitDy=0;exitPerimeter=0;entryX=1;entryY=0.5;entryDx=0;entryDy=0;" parent="1" source="2w3s3NBnuRrY-y5f0Wq8-33" target="2w3s3NBnuRrY-y5f0Wq8-15" edge="1">
          <mxGeometry relative="1" as="geometry" />
        </mxCell>
        <mxCell id="2w3s3NBnuRrY-y5f0Wq8-56" style="rounded=0;orthogonalLoop=1;jettySize=auto;html=1;exitX=0;exitY=0.3333333333333333;exitDx=0;exitDy=0;exitPerimeter=0;entryX=1;entryY=0.5;entryDx=0;entryDy=0;" parent="1" source="2w3s3NBnuRrY-y5f0Wq8-33" target="2w3s3NBnuRrY-y5f0Wq8-16" edge="1">
          <mxGeometry relative="1" as="geometry" />
        </mxCell>
        <mxCell id="2w3s3NBnuRrY-y5f0Wq8-33" value="Actor" style="shape=umlActor;verticalLabelPosition=bottom;verticalAlign=top;html=1;outlineConnect=0;" parent="1" vertex="1">
          <mxGeometry x="1395" y="240" width="30" height="60" as="geometry" />
        </mxCell>
        <mxCell id="2w3s3NBnuRrY-y5f0Wq8-41" style="rounded=0;orthogonalLoop=1;jettySize=auto;html=1;exitX=1;exitY=0.3333333333333333;exitDx=0;exitDy=0;exitPerimeter=0;entryX=0;entryY=0.75;entryDx=0;entryDy=0;" parent="1" source="2w3s3NBnuRrY-y5f0Wq8-34" target="2w3s3NBnuRrY-y5f0Wq8-3" edge="1">
          <mxGeometry relative="1" as="geometry" />
        </mxCell>
        <mxCell id="2w3s3NBnuRrY-y5f0Wq8-42" style="rounded=0;orthogonalLoop=1;jettySize=auto;html=1;exitX=1;exitY=0.3333333333333333;exitDx=0;exitDy=0;exitPerimeter=0;entryX=0;entryY=0.5;entryDx=0;entryDy=0;" parent="1" source="2w3s3NBnuRrY-y5f0Wq8-34" target="2w3s3NBnuRrY-y5f0Wq8-4" edge="1">
          <mxGeometry relative="1" as="geometry" />
        </mxCell>
        <mxCell id="2w3s3NBnuRrY-y5f0Wq8-44" style="rounded=0;orthogonalLoop=1;jettySize=auto;html=1;exitX=1;exitY=0.3333333333333333;exitDx=0;exitDy=0;exitPerimeter=0;entryX=0;entryY=0.5;entryDx=0;entryDy=0;" parent="1" source="2w3s3NBnuRrY-y5f0Wq8-34" target="2w3s3NBnuRrY-y5f0Wq8-5" edge="1">
          <mxGeometry relative="1" as="geometry" />
        </mxCell>
        <mxCell id="2w3s3NBnuRrY-y5f0Wq8-45" style="rounded=0;orthogonalLoop=1;jettySize=auto;html=1;exitX=1;exitY=0.3333333333333333;exitDx=0;exitDy=0;exitPerimeter=0;entryX=0;entryY=0.5;entryDx=0;entryDy=0;" parent="1" source="2w3s3NBnuRrY-y5f0Wq8-34" target="2w3s3NBnuRrY-y5f0Wq8-6" edge="1">
          <mxGeometry relative="1" as="geometry" />
        </mxCell>
        <mxCell id="2w3s3NBnuRrY-y5f0Wq8-46" style="rounded=0;orthogonalLoop=1;jettySize=auto;html=1;exitX=1;exitY=0.3333333333333333;exitDx=0;exitDy=0;exitPerimeter=0;entryX=0;entryY=0.5;entryDx=0;entryDy=0;" parent="1" source="2w3s3NBnuRrY-y5f0Wq8-34" target="2w3s3NBnuRrY-y5f0Wq8-7" edge="1">
          <mxGeometry relative="1" as="geometry" />
        </mxCell>
        <mxCell id="2w3s3NBnuRrY-y5f0Wq8-47" style="rounded=0;orthogonalLoop=1;jettySize=auto;html=1;exitX=1;exitY=0.3333333333333333;exitDx=0;exitDy=0;exitPerimeter=0;entryX=0;entryY=0.5;entryDx=0;entryDy=0;" parent="1" source="2w3s3NBnuRrY-y5f0Wq8-34" target="2w3s3NBnuRrY-y5f0Wq8-8" edge="1">
          <mxGeometry relative="1" as="geometry" />
        </mxCell>
        <mxCell id="2w3s3NBnuRrY-y5f0Wq8-48" style="rounded=0;orthogonalLoop=1;jettySize=auto;html=1;exitX=1;exitY=0.3333333333333333;exitDx=0;exitDy=0;exitPerimeter=0;entryX=0;entryY=0.5;entryDx=0;entryDy=0;" parent="1" source="2w3s3NBnuRrY-y5f0Wq8-34" target="2w3s3NBnuRrY-y5f0Wq8-9" edge="1">
          <mxGeometry relative="1" as="geometry" />
        </mxCell>
        <mxCell id="2w3s3NBnuRrY-y5f0Wq8-49" style="rounded=0;orthogonalLoop=1;jettySize=auto;html=1;exitX=1;exitY=0.3333333333333333;exitDx=0;exitDy=0;exitPerimeter=0;entryX=0;entryY=0.5;entryDx=0;entryDy=0;" parent="1" source="2w3s3NBnuRrY-y5f0Wq8-34" target="2w3s3NBnuRrY-y5f0Wq8-10" edge="1">
          <mxGeometry relative="1" as="geometry" />
        </mxCell>
        <mxCell id="2w3s3NBnuRrY-y5f0Wq8-50" style="rounded=0;orthogonalLoop=1;jettySize=auto;html=1;exitX=1;exitY=0.3333333333333333;exitDx=0;exitDy=0;exitPerimeter=0;entryX=0;entryY=0.5;entryDx=0;entryDy=0;" parent="1" source="2w3s3NBnuRrY-y5f0Wq8-34" target="2w3s3NBnuRrY-y5f0Wq8-11" edge="1">
          <mxGeometry relative="1" as="geometry" />
        </mxCell>
        <mxCell id="2w3s3NBnuRrY-y5f0Wq8-34" value="Actor" style="shape=umlActor;verticalLabelPosition=bottom;verticalAlign=top;html=1;outlineConnect=0;" parent="1" vertex="1">
          <mxGeometry x="615" y="230" width="30" height="60" as="geometry" />
        </mxCell>
        <mxCell id="2w3s3NBnuRrY-y5f0Wq8-39" value="Admin" style="text;html=1;align=center;verticalAlign=middle;resizable=0;points=[];autosize=1;strokeColor=none;fillColor=none;" parent="1" vertex="1">
          <mxGeometry x="1380" y="310" width="60" height="30" as="geometry" />
        </mxCell>
        <mxCell id="2w3s3NBnuRrY-y5f0Wq8-40" value="Pelanggan" style="text;html=1;align=center;verticalAlign=middle;resizable=0;points=[];autosize=1;strokeColor=none;fillColor=none;" parent="1" vertex="1">
          <mxGeometry x="590" y="300" width="80" height="30" as="geometry" />
        </mxCell>
        <mxCell id="2w3s3NBnuRrY-y5f0Wq8-57" value="System penyewaan lapangan tenis" style="swimlane;whiteSpace=wrap;html=1;" parent="1" vertex="1">
          <mxGeometry x="800" width="430" height="1050" as="geometry" />
        </mxCell>
        <mxCell id="07Zfq5KHVq73itB8e9fB-1" value="Menu utama" style="shape=umlBoundary;whiteSpace=wrap;html=1;" parent="1" vertex="1">
          <mxGeometry x="1870" y="121" width="100" height="80" as="geometry" />
        </mxCell>
        <mxCell id="07Zfq5KHVq73itB8e9fB-2" value="Reservasi" style="shape=umlBoundary;whiteSpace=wrap;html=1;" parent="1" vertex="1">
          <mxGeometry x="2060" y="121" width="100" height="80" as="geometry" />
        </mxCell>
        <mxCell id="07Zfq5KHVq73itB8e9fB-3" value="" style="endArrow=none;dashed=1;html=1;dashPattern=1 3;strokeWidth=2;rounded=0;entryX=0.598;entryY=1.036;entryDx=0;entryDy=0;entryPerimeter=0;shadow=0;" parent="1" edge="1">
          <mxGeometry width="50" height="50" relative="1" as="geometry">
            <mxPoint x="1934.29" y="307.12" as="sourcePoint" />
            <mxPoint x="1934.0900000000001" y="201.0000000000001" as="targetPoint" />
          </mxGeometry>
        </mxCell>
        <mxCell id="07Zfq5KHVq73itB8e9fB-4" value="" style="html=1;points=[[0,0,0,0,5],[0,1,0,0,-5],[1,0,0,0,5],[1,1,0,0,-5]];perimeter=orthogonalPerimeter;outlineConnect=0;targetShapes=umlLifeline;portConstraint=eastwest;newEdgeStyle={&quot;curved&quot;:0,&quot;rounded&quot;:0};" parent="1" vertex="1">
          <mxGeometry x="1930" y="310" width="10" height="80" as="geometry" />
        </mxCell>
        <mxCell id="07Zfq5KHVq73itB8e9fB-5" value="" style="html=1;points=[[0,0,0,0,5],[0,1,0,0,-5],[1,0,0,0,5],[1,1,0,0,-5]];perimeter=orthogonalPerimeter;outlineConnect=0;targetShapes=umlLifeline;portConstraint=eastwest;newEdgeStyle={&quot;curved&quot;:0,&quot;rounded&quot;:0};" parent="1" vertex="1">
          <mxGeometry x="2110" y="310" width="10" height="250" as="geometry" />
        </mxCell>
        <mxCell id="07Zfq5KHVq73itB8e9fB-6" value="" style="endArrow=none;dashed=1;html=1;dashPattern=1 3;strokeWidth=2;rounded=0;entryX=0.598;entryY=1.036;entryDx=0;entryDy=0;entryPerimeter=0;shadow=0;" parent="1" edge="1">
          <mxGeometry width="50" height="50" relative="1" as="geometry">
            <mxPoint x="2114.72" y="308" as="sourcePoint" />
            <mxPoint x="2114.52" y="201.8800000000001" as="targetPoint" />
          </mxGeometry>
        </mxCell>
        <mxCell id="07Zfq5KHVq73itB8e9fB-7" value="Control Object" style="ellipse;shape=umlControl;whiteSpace=wrap;html=1;" parent="1" vertex="1">
          <mxGeometry x="2290" y="121" width="70" height="80" as="geometry" />
        </mxCell>
        <mxCell id="07Zfq5KHVq73itB8e9fB-8" value="" style="html=1;points=[[0,0,0,0,5],[0,1,0,0,-5],[1,0,0,0,5],[1,1,0,0,-5]];perimeter=orthogonalPerimeter;outlineConnect=0;targetShapes=umlLifeline;portConstraint=eastwest;newEdgeStyle={&quot;curved&quot;:0,&quot;rounded&quot;:0};" parent="1" vertex="1">
          <mxGeometry x="2320" y="312" width="10" height="248" as="geometry" />
        </mxCell>
        <mxCell id="07Zfq5KHVq73itB8e9fB-9" value="" style="endArrow=none;dashed=1;html=1;dashPattern=1 3;strokeWidth=2;rounded=0;entryX=0.598;entryY=1.036;entryDx=0;entryDy=0;entryPerimeter=0;shadow=0;" parent="1" edge="1">
          <mxGeometry width="50" height="50" relative="1" as="geometry">
            <mxPoint x="2324.29" y="309.12" as="sourcePoint" />
            <mxPoint x="2324.09" y="203.0000000000001" as="targetPoint" />
          </mxGeometry>
        </mxCell>
        <mxCell id="07Zfq5KHVq73itB8e9fB-10" value="Costumer" style="shape=umlActor;verticalLabelPosition=bottom;verticalAlign=top;html=1;" parent="1" vertex="1">
          <mxGeometry x="1620" y="199" width="30" height="60" as="geometry" />
        </mxCell>
        <mxCell id="07Zfq5KHVq73itB8e9fB-13" value="" style="html=1;points=[[0,0,0,0,5],[0,1,0,0,-5],[1,0,0,0,5],[1,1,0,0,-5]];perimeter=orthogonalPerimeter;outlineConnect=0;targetShapes=umlLifeline;portConstraint=eastwest;newEdgeStyle={&quot;curved&quot;:0,&quot;rounded&quot;:0};" parent="1" vertex="1">
          <mxGeometry x="1630" y="308" width="10" height="252" as="geometry" />
        </mxCell>
        <mxCell id="07Zfq5KHVq73itB8e9fB-14" value="" style="endArrow=classic;html=1;rounded=0;entryX=0;entryY=0;entryDx=0;entryDy=5;entryPerimeter=0;" parent="1" source="07Zfq5KHVq73itB8e9fB-13" target="07Zfq5KHVq73itB8e9fB-4" edge="1">
          <mxGeometry width="50" height="50" relative="1" as="geometry">
            <mxPoint x="1690" y="330" as="sourcePoint" />
            <mxPoint x="1740" y="280" as="targetPoint" />
          </mxGeometry>
        </mxCell>
        <mxCell id="07Zfq5KHVq73itB8e9fB-15" value="" style="endArrow=none;dashed=1;html=1;dashPattern=1 3;strokeWidth=2;rounded=0;entryX=0.598;entryY=1.036;entryDx=0;entryDy=0;entryPerimeter=0;shadow=0;" parent="1" edge="1">
          <mxGeometry width="50" height="50" relative="1" as="geometry">
            <mxPoint x="1635" y="313" as="sourcePoint" />
            <mxPoint x="1634.5200000000002" y="271.9400000000001" as="targetPoint" />
          </mxGeometry>
        </mxCell>
        <mxCell id="07Zfq5KHVq73itB8e9fB-16" value="PilihMenuReservasi()" style="text;html=1;align=center;verticalAlign=middle;resizable=0;points=[];autosize=1;strokeColor=none;fillColor=none;" parent="1" vertex="1">
          <mxGeometry x="1640" y="288" width="140" height="30" as="geometry" />
        </mxCell>
        <mxCell id="07Zfq5KHVq73itB8e9fB-17" value="" style="endArrow=classic;html=1;rounded=0;entryX=0;entryY=0;entryDx=0;entryDy=5;entryPerimeter=0;exitX=1;exitY=0;exitDx=0;exitDy=5;exitPerimeter=0;" parent="1" source="07Zfq5KHVq73itB8e9fB-4" target="07Zfq5KHVq73itB8e9fB-5" edge="1">
          <mxGeometry width="50" height="50" relative="1" as="geometry">
            <mxPoint x="1950" y="315" as="sourcePoint" />
            <mxPoint x="1940" y="325" as="targetPoint" />
          </mxGeometry>
        </mxCell>
        <mxCell id="07Zfq5KHVq73itB8e9fB-18" value="TampilkanMenuReservasi()" style="text;html=1;align=center;verticalAlign=middle;resizable=0;points=[];autosize=1;strokeColor=none;fillColor=none;" parent="1" vertex="1">
          <mxGeometry x="1930" y="288" width="170" height="30" as="geometry" />
        </mxCell>
        <mxCell id="07Zfq5KHVq73itB8e9fB-20" value="MenampilkanMenuReservasi()" style="text;html=1;align=center;verticalAlign=middle;resizable=0;points=[];autosize=1;strokeColor=none;fillColor=none;" parent="1" vertex="1">
          <mxGeometry x="1930" y="347" width="190" height="30" as="geometry" />
        </mxCell>
        <mxCell id="07Zfq5KHVq73itB8e9fB-21" value="" style="endArrow=block;dashed=1;endFill=0;endSize=12;html=1;rounded=0;" parent="1" edge="1">
          <mxGeometry width="160" relative="1" as="geometry">
            <mxPoint x="2110" y="377" as="sourcePoint" />
            <mxPoint x="1940" y="377.04" as="targetPoint" />
            <Array as="points">
              <mxPoint x="1990" y="377.04" />
            </Array>
          </mxGeometry>
        </mxCell>
        <mxCell id="07Zfq5KHVq73itB8e9fB-22" value="Reservasi" style="shape=umlFrame;whiteSpace=wrap;html=1;pointerEvents=0;" parent="1" vertex="1">
          <mxGeometry x="1580" y="100" width="1080" height="510" as="geometry" />
        </mxCell>
        <mxCell id="07Zfq5KHVq73itB8e9fB-23" value="" style="endArrow=block;dashed=1;endFill=0;endSize=12;html=1;rounded=0;exitX=1.005;exitY=0.832;exitDx=0;exitDy=0;exitPerimeter=0;" parent="1" target="07Zfq5KHVq73itB8e9fB-13" edge="1">
          <mxGeometry width="160" relative="1" as="geometry">
            <mxPoint x="1929.9999999999998" y="377.00000000000006" as="sourcePoint" />
            <mxPoint x="1769.2" y="377.04" as="targetPoint" />
            <Array as="points">
              <mxPoint x="1819.2" y="377.04" />
            </Array>
          </mxGeometry>
        </mxCell>
        <mxCell id="07Zfq5KHVq73itB8e9fB-24" value="MenampilkanMenuRegis()" style="text;html=1;align=center;verticalAlign=middle;resizable=0;points=[];autosize=1;strokeColor=none;fillColor=none;" parent="1" vertex="1">
          <mxGeometry x="1670" y="348" width="160" height="30" as="geometry" />
        </mxCell>
        <mxCell id="07Zfq5KHVq73itB8e9fB-25" value="" style="endArrow=classic;html=1;rounded=0;" parent="1" target="07Zfq5KHVq73itB8e9fB-5" edge="1">
          <mxGeometry width="50" height="50" relative="1" as="geometry">
            <mxPoint x="1630" y="440" as="sourcePoint" />
            <mxPoint x="1920" y="440" as="targetPoint" />
          </mxGeometry>
        </mxCell>
        <mxCell id="07Zfq5KHVq73itB8e9fB-26" value="IsiDataReservasiDanPembayaran(lapangan,Nominal uang)" style="edgeLabel;html=1;align=center;verticalAlign=middle;resizable=0;points=[];" parent="07Zfq5KHVq73itB8e9fB-25" vertex="1" connectable="0">
          <mxGeometry x="-0.0619" y="4" relative="1" as="geometry">
            <mxPoint y="-6" as="offset" />
          </mxGeometry>
        </mxCell>
        <mxCell id="07Zfq5KHVq73itB8e9fB-27" value="Entity Object" style="ellipse;shape=umlEntity;whiteSpace=wrap;html=1;" parent="1" vertex="1">
          <mxGeometry x="2530" y="122.5" width="80" height="80" as="geometry" />
        </mxCell>
        <mxCell id="07Zfq5KHVq73itB8e9fB-29" value="" style="endArrow=classic;html=1;rounded=0;exitX=1;exitY=0;exitDx=0;exitDy=5;exitPerimeter=0;" parent="1" target="07Zfq5KHVq73itB8e9fB-8" edge="1">
          <mxGeometry width="50" height="50" relative="1" as="geometry">
            <mxPoint x="2120" y="440" as="sourcePoint" />
            <mxPoint x="2290" y="440" as="targetPoint" />
          </mxGeometry>
        </mxCell>
        <mxCell id="07Zfq5KHVq73itB8e9fB-30" value="Reservasi(lapangan,pembayaran)" style="text;html=1;align=center;verticalAlign=middle;resizable=0;points=[];autosize=1;strokeColor=none;fillColor=none;" parent="1" vertex="1">
          <mxGeometry x="2120" y="410" width="200" height="30" as="geometry" />
        </mxCell>
        <mxCell id="07Zfq5KHVq73itB8e9fB-31" value="" style="endArrow=none;dashed=1;html=1;dashPattern=1 3;strokeWidth=2;rounded=0;entryX=0.598;entryY=1.036;entryDx=0;entryDy=0;entryPerimeter=0;shadow=0;" parent="1" edge="1">
          <mxGeometry width="50" height="50" relative="1" as="geometry">
            <mxPoint x="2569.5299999999997" y="311.5" as="sourcePoint" />
            <mxPoint x="2569.33" y="205.3800000000001" as="targetPoint" />
          </mxGeometry>
        </mxCell>
        <mxCell id="07Zfq5KHVq73itB8e9fB-32" value="" style="html=1;points=[[0,0,0,0,5],[0,1,0,0,-5],[1,0,0,0,5],[1,1,0,0,-5]];perimeter=orthogonalPerimeter;outlineConnect=0;targetShapes=umlLifeline;portConstraint=eastwest;newEdgeStyle={&quot;curved&quot;:0,&quot;rounded&quot;:0};" parent="1" vertex="1">
          <mxGeometry x="2565" y="313.5" width="10" height="246.5" as="geometry" />
        </mxCell>
        <mxCell id="07Zfq5KHVq73itB8e9fB-33" value="" style="endArrow=classic;html=1;rounded=0;exitX=1;exitY=0;exitDx=0;exitDy=5;exitPerimeter=0;" parent="1" target="07Zfq5KHVq73itB8e9fB-32" edge="1">
          <mxGeometry width="50" height="50" relative="1" as="geometry">
            <mxPoint x="2330" y="440" as="sourcePoint" />
            <mxPoint x="2500" y="440" as="targetPoint" />
          </mxGeometry>
        </mxCell>
        <mxCell id="07Zfq5KHVq73itB8e9fB-34" value="Reservasi(lapangan,pembayaran)" style="text;html=1;align=center;verticalAlign=middle;resizable=0;points=[];autosize=1;strokeColor=none;fillColor=none;" parent="1" vertex="1">
          <mxGeometry x="2340" y="410" width="200" height="30" as="geometry" />
        </mxCell>
        <mxCell id="07Zfq5KHVq73itB8e9fB-35" value="" style="endArrow=block;dashed=1;endFill=0;endSize=12;html=1;rounded=0;" parent="1" target="07Zfq5KHVq73itB8e9fB-8" edge="1">
          <mxGeometry width="160" relative="1" as="geometry">
            <mxPoint x="2565" y="520" as="sourcePoint" />
            <mxPoint x="2395" y="520.04" as="targetPoint" />
            <Array as="points">
              <mxPoint x="2460" y="520" />
            </Array>
          </mxGeometry>
        </mxCell>
        <mxCell id="07Zfq5KHVq73itB8e9fB-36" value="" style="endArrow=block;dashed=1;endFill=0;endSize=12;html=1;rounded=0;" parent="1" edge="1">
          <mxGeometry width="160" relative="1" as="geometry">
            <mxPoint x="2320" y="520" as="sourcePoint" />
            <mxPoint x="2120" y="520" as="targetPoint" />
            <Array as="points">
              <mxPoint x="2215" y="520" />
            </Array>
          </mxGeometry>
        </mxCell>
        <mxCell id="07Zfq5KHVq73itB8e9fB-37" value="ReturnStatusReservasi" style="text;html=1;align=center;verticalAlign=middle;resizable=0;points=[];autosize=1;strokeColor=none;fillColor=none;" parent="1" vertex="1">
          <mxGeometry x="2365" y="488" width="150" height="30" as="geometry" />
        </mxCell>
        <mxCell id="07Zfq5KHVq73itB8e9fB-38" value="ReturnStatusReservasi" style="text;html=1;align=center;verticalAlign=middle;resizable=0;points=[];autosize=1;strokeColor=none;fillColor=none;" parent="1" vertex="1">
          <mxGeometry x="2145" y="488" width="150" height="30" as="geometry" />
        </mxCell>
        <mxCell id="07Zfq5KHVq73itB8e9fB-39" value="" style="endArrow=block;dashed=1;endFill=0;endSize=12;html=1;rounded=0;" parent="1" target="07Zfq5KHVq73itB8e9fB-13" edge="1">
          <mxGeometry width="160" relative="1" as="geometry">
            <mxPoint x="2110" y="518" as="sourcePoint" />
            <mxPoint x="1875" y="518" as="targetPoint" />
            <Array as="points">
              <mxPoint x="2005" y="518" />
            </Array>
          </mxGeometry>
        </mxCell>
        <mxCell id="07Zfq5KHVq73itB8e9fB-40" value="ReturnStatusReservasi" style="text;html=1;align=center;verticalAlign=middle;resizable=0;points=[];autosize=1;strokeColor=none;fillColor=none;" parent="1" vertex="1">
          <mxGeometry x="1810" y="488" width="150" height="30" as="geometry" />
        </mxCell>
        <mxCell id="IS9TdEHiG9S3ljIj2pPj-14" value="Proses Registrasi costumer" style="shape=table;startSize=30;container=1;collapsible=0;childLayout=tableLayout;fixedRows=1;rowLines=0;fontStyle=0;strokeColor=default;fontSize=16;" vertex="1" parent="1">
          <mxGeometry x="2065" y="860" width="235" height="840" as="geometry" />
        </mxCell>
        <mxCell id="IS9TdEHiG9S3ljIj2pPj-15" value="" style="shape=tableRow;horizontal=0;startSize=0;swimlaneHead=0;swimlaneBody=0;top=0;left=0;bottom=0;right=0;collapsible=0;dropTarget=0;fillColor=none;points=[[0,0.5],[1,0.5]];portConstraint=eastwest;strokeColor=inherit;fontSize=16;" vertex="1" parent="IS9TdEHiG9S3ljIj2pPj-14">
          <mxGeometry y="30" width="235" height="30" as="geometry" />
        </mxCell>
        <mxCell id="IS9TdEHiG9S3ljIj2pPj-16" value="Costumer" style="shape=partialRectangle;html=1;whiteSpace=wrap;connectable=0;fillColor=none;top=0;left=0;bottom=0;right=0;overflow=hidden;pointerEvents=1;strokeColor=inherit;fontSize=16;" vertex="1" parent="IS9TdEHiG9S3ljIj2pPj-15">
          <mxGeometry width="115" height="30" as="geometry">
            <mxRectangle width="115" height="30" as="alternateBounds" />
          </mxGeometry>
        </mxCell>
        <mxCell id="IS9TdEHiG9S3ljIj2pPj-17" value="Sistem" style="shape=partialRectangle;html=1;whiteSpace=wrap;connectable=0;fillColor=none;top=0;left=0;bottom=0;right=0;align=left;spacingLeft=6;overflow=hidden;strokeColor=inherit;fontSize=16;" vertex="1" parent="IS9TdEHiG9S3ljIj2pPj-15">
          <mxGeometry x="115" width="120" height="30" as="geometry">
            <mxRectangle width="120" height="30" as="alternateBounds" />
          </mxGeometry>
        </mxCell>
        <mxCell id="IS9TdEHiG9S3ljIj2pPj-18" value="" style="shape=tableRow;horizontal=0;startSize=0;swimlaneHead=0;swimlaneBody=0;top=0;left=0;bottom=0;right=0;collapsible=0;dropTarget=0;fillColor=none;points=[[0,0.5],[1,0.5]];portConstraint=eastwest;strokeColor=inherit;fontSize=16;" vertex="1" parent="IS9TdEHiG9S3ljIj2pPj-14">
          <mxGeometry y="60" width="235" height="30" as="geometry" />
        </mxCell>
        <mxCell id="IS9TdEHiG9S3ljIj2pPj-19" value="" style="shape=partialRectangle;html=1;whiteSpace=wrap;connectable=0;fillColor=none;top=0;left=0;bottom=0;right=0;overflow=hidden;strokeColor=inherit;fontSize=16;" vertex="1" parent="IS9TdEHiG9S3ljIj2pPj-18">
          <mxGeometry width="115" height="30" as="geometry">
            <mxRectangle width="115" height="30" as="alternateBounds" />
          </mxGeometry>
        </mxCell>
        <mxCell id="IS9TdEHiG9S3ljIj2pPj-20" value="" style="shape=partialRectangle;html=1;whiteSpace=wrap;connectable=0;fillColor=none;top=0;left=0;bottom=0;right=0;align=left;spacingLeft=6;overflow=hidden;strokeColor=inherit;fontSize=16;" vertex="1" parent="IS9TdEHiG9S3ljIj2pPj-18">
          <mxGeometry x="115" width="120" height="30" as="geometry">
            <mxRectangle width="120" height="30" as="alternateBounds" />
          </mxGeometry>
        </mxCell>
        <mxCell id="IS9TdEHiG9S3ljIj2pPj-21" value="" style="shape=tableRow;horizontal=0;startSize=0;swimlaneHead=0;swimlaneBody=0;top=0;left=0;bottom=0;right=0;collapsible=0;dropTarget=0;fillColor=none;points=[[0,0.5],[1,0.5]];portConstraint=eastwest;strokeColor=inherit;fontSize=16;" vertex="1" parent="IS9TdEHiG9S3ljIj2pPj-14">
          <mxGeometry y="90" width="235" height="750" as="geometry" />
        </mxCell>
        <mxCell id="IS9TdEHiG9S3ljIj2pPj-22" value="" style="shape=partialRectangle;html=1;whiteSpace=wrap;connectable=0;fillColor=none;top=0;left=0;bottom=0;right=0;overflow=hidden;strokeColor=inherit;fontSize=16;" vertex="1" parent="IS9TdEHiG9S3ljIj2pPj-21">
          <mxGeometry width="115" height="750" as="geometry">
            <mxRectangle width="115" height="750" as="alternateBounds" />
          </mxGeometry>
        </mxCell>
        <mxCell id="IS9TdEHiG9S3ljIj2pPj-23" value="" style="shape=partialRectangle;html=1;whiteSpace=wrap;connectable=0;fillColor=none;top=0;left=0;bottom=0;right=0;align=left;spacingLeft=6;overflow=hidden;strokeColor=inherit;fontSize=16;" vertex="1" parent="IS9TdEHiG9S3ljIj2pPj-21">
          <mxGeometry x="115" width="120" height="750" as="geometry">
            <mxRectangle width="120" height="750" as="alternateBounds" />
          </mxGeometry>
        </mxCell>
        <mxCell id="IS9TdEHiG9S3ljIj2pPj-59" value="" style="whiteSpace=wrap;html=1;" vertex="1" parent="IS9TdEHiG9S3ljIj2pPj-21">
          <mxGeometry x="235" width="NaN" height="750" as="geometry">
            <mxRectangle width="NaN" height="750" as="alternateBounds" />
          </mxGeometry>
        </mxCell>
        <mxCell id="IS9TdEHiG9S3ljIj2pPj-61" value="" style="ellipse;whiteSpace=wrap;html=1;" vertex="1" parent="IS9TdEHiG9S3ljIj2pPj-21">
          <mxGeometry width="NaN" height="750" as="geometry">
            <mxRectangle width="NaN" height="750" as="alternateBounds" />
          </mxGeometry>
        </mxCell>
        <mxCell id="IS9TdEHiG9S3ljIj2pPj-24" value="" style="endArrow=none;html=1;rounded=0;entryX=1;entryY=0.948;entryDx=0;entryDy=0;exitX=0.001;exitY=0.979;exitDx=0;exitDy=0;exitPerimeter=0;entryPerimeter=0;" edge="1" parent="IS9TdEHiG9S3ljIj2pPj-14" source="IS9TdEHiG9S3ljIj2pPj-15" target="IS9TdEHiG9S3ljIj2pPj-15">
          <mxGeometry width="50" height="50" relative="1" as="geometry">
            <mxPoint x="-25" y="270" as="sourcePoint" />
            <mxPoint x="25" y="220" as="targetPoint" />
            <Array as="points">
              <mxPoint x="115" y="60" />
            </Array>
          </mxGeometry>
        </mxCell>
        <mxCell id="IS9TdEHiG9S3ljIj2pPj-28" value="" style="ellipse;html=1;shape=endState;fillColor=#000000;strokeColor=#ff0000;" vertex="1" parent="1">
          <mxGeometry x="2220" y="1630" width="30" height="30" as="geometry" />
        </mxCell>
        <mxCell id="IS9TdEHiG9S3ljIj2pPj-33" value="" style="edgeStyle=orthogonalEdgeStyle;rounded=0;orthogonalLoop=1;jettySize=auto;html=1;" edge="1" parent="1" source="IS9TdEHiG9S3ljIj2pPj-29" target="IS9TdEHiG9S3ljIj2pPj-32">
          <mxGeometry relative="1" as="geometry" />
        </mxCell>
        <mxCell id="IS9TdEHiG9S3ljIj2pPj-29" value="" style="shape=waypoint;sketch=0;fillStyle=solid;size=25;pointerEvents=1;points=[];fillColor=none;resizable=0;rotatable=0;perimeter=centerPerimeter;snapToPoint=1;" vertex="1" parent="1">
          <mxGeometry x="2220" y="939.5" width="20" height="20" as="geometry" />
        </mxCell>
        <mxCell id="IS9TdEHiG9S3ljIj2pPj-30" style="edgeStyle=orthogonalEdgeStyle;rounded=0;orthogonalLoop=1;jettySize=auto;html=1;entryX=0.908;entryY=0.353;entryDx=0;entryDy=0;entryPerimeter=0;" edge="1" parent="1" source="IS9TdEHiG9S3ljIj2pPj-29" target="IS9TdEHiG9S3ljIj2pPj-29">
          <mxGeometry relative="1" as="geometry" />
        </mxCell>
        <mxCell id="IS9TdEHiG9S3ljIj2pPj-46" value="" style="edgeStyle=orthogonalEdgeStyle;rounded=0;orthogonalLoop=1;jettySize=auto;html=1;" edge="1" parent="1" source="IS9TdEHiG9S3ljIj2pPj-32" target="IS9TdEHiG9S3ljIj2pPj-34">
          <mxGeometry relative="1" as="geometry">
            <Array as="points">
              <mxPoint x="2230" y="1060" />
              <mxPoint x="2115" y="1060" />
            </Array>
          </mxGeometry>
        </mxCell>
        <mxCell id="IS9TdEHiG9S3ljIj2pPj-32" value="Halaman web penyewaan lapangan tenis" style="rounded=1;whiteSpace=wrap;html=1;" vertex="1" parent="1">
          <mxGeometry x="2185" y="990" width="90" height="60" as="geometry" />
        </mxCell>
        <mxCell id="IS9TdEHiG9S3ljIj2pPj-48" value="" style="edgeStyle=orthogonalEdgeStyle;rounded=0;orthogonalLoop=1;jettySize=auto;html=1;" edge="1" parent="1" source="IS9TdEHiG9S3ljIj2pPj-34" target="IS9TdEHiG9S3ljIj2pPj-47">
          <mxGeometry relative="1" as="geometry">
            <Array as="points">
              <mxPoint x="2120" y="1160" />
            </Array>
          </mxGeometry>
        </mxCell>
        <mxCell id="IS9TdEHiG9S3ljIj2pPj-34" value="Pilih halaman resgistrasi" style="rounded=1;whiteSpace=wrap;html=1;" vertex="1" parent="1">
          <mxGeometry x="2085" y="1080" width="80" height="60" as="geometry" />
        </mxCell>
        <mxCell id="IS9TdEHiG9S3ljIj2pPj-50" value="" style="edgeStyle=orthogonalEdgeStyle;rounded=0;orthogonalLoop=1;jettySize=auto;html=1;" edge="1" parent="1" source="IS9TdEHiG9S3ljIj2pPj-47" target="IS9TdEHiG9S3ljIj2pPj-49">
          <mxGeometry relative="1" as="geometry" />
        </mxCell>
        <mxCell id="IS9TdEHiG9S3ljIj2pPj-47" value="Menampilkan Halaman resgistrasi&amp;nbsp;" style="rounded=1;whiteSpace=wrap;html=1;" vertex="1" parent="1">
          <mxGeometry x="2190" y="1130" width="90" height="60" as="geometry" />
        </mxCell>
        <mxCell id="IS9TdEHiG9S3ljIj2pPj-54" value="" style="edgeStyle=orthogonalEdgeStyle;rounded=0;orthogonalLoop=1;jettySize=auto;html=1;" edge="1" parent="1" source="IS9TdEHiG9S3ljIj2pPj-49" target="IS9TdEHiG9S3ljIj2pPj-53">
          <mxGeometry relative="1" as="geometry">
            <Array as="points">
              <mxPoint x="2235" y="1290" />
              <mxPoint x="2118" y="1290" />
            </Array>
          </mxGeometry>
        </mxCell>
        <mxCell id="IS9TdEHiG9S3ljIj2pPj-49" value="Form Registrasi" style="rounded=1;whiteSpace=wrap;html=1;" vertex="1" parent="1">
          <mxGeometry x="2190" y="1220" width="90" height="60" as="geometry" />
        </mxCell>
        <mxCell id="IS9TdEHiG9S3ljIj2pPj-56" value="" style="edgeStyle=orthogonalEdgeStyle;rounded=0;orthogonalLoop=1;jettySize=auto;html=1;" edge="1" parent="1" source="IS9TdEHiG9S3ljIj2pPj-53" target="IS9TdEHiG9S3ljIj2pPj-55">
          <mxGeometry relative="1" as="geometry">
            <Array as="points">
              <mxPoint x="2118" y="1370" />
            </Array>
          </mxGeometry>
        </mxCell>
        <mxCell id="IS9TdEHiG9S3ljIj2pPj-53" value="Mengisi form registrasi&amp;nbsp;" style="rounded=1;whiteSpace=wrap;html=1;" vertex="1" parent="1">
          <mxGeometry x="2075" y="1280" width="85" height="50" as="geometry" />
        </mxCell>
        <mxCell id="IS9TdEHiG9S3ljIj2pPj-58" value="" style="edgeStyle=orthogonalEdgeStyle;rounded=0;orthogonalLoop=1;jettySize=auto;html=1;entryX=0.5;entryY=0;entryDx=0;entryDy=0;" edge="1" parent="1" source="IS9TdEHiG9S3ljIj2pPj-55" target="IS9TdEHiG9S3ljIj2pPj-66">
          <mxGeometry relative="1" as="geometry">
            <mxPoint x="2235" y="1470" as="targetPoint" />
          </mxGeometry>
        </mxCell>
        <mxCell id="IS9TdEHiG9S3ljIj2pPj-55" value="Menyimpan data costumer" style="rounded=1;whiteSpace=wrap;html=1;" vertex="1" parent="1">
          <mxGeometry x="2190" y="1340" width="90" height="55" as="geometry" />
        </mxCell>
        <mxCell id="IS9TdEHiG9S3ljIj2pPj-60" value="" style="edgeStyle=orthogonalEdgeStyle;rounded=0;orthogonalLoop=1;jettySize=auto;html=1;" edge="1" parent="1" target="IS9TdEHiG9S3ljIj2pPj-59">
          <mxGeometry relative="1" as="geometry">
            <mxPoint x="2265" y="1500" as="sourcePoint" />
          </mxGeometry>
        </mxCell>
        <mxCell id="IS9TdEHiG9S3ljIj2pPj-62" value="" style="edgeStyle=orthogonalEdgeStyle;rounded=0;orthogonalLoop=1;jettySize=auto;html=1;" edge="1" parent="1" target="IS9TdEHiG9S3ljIj2pPj-61">
          <mxGeometry relative="1" as="geometry">
            <mxPoint x="2235.058823529412" y="1470.0588235294122" as="sourcePoint" />
          </mxGeometry>
        </mxCell>
        <mxCell id="IS9TdEHiG9S3ljIj2pPj-65" style="edgeStyle=orthogonalEdgeStyle;rounded=0;orthogonalLoop=1;jettySize=auto;html=1;exitX=0;exitY=1;exitDx=0;exitDy=0;entryX=1;entryY=1;entryDx=0;entryDy=0;" edge="1" parent="1" source="IS9TdEHiG9S3ljIj2pPj-28" target="IS9TdEHiG9S3ljIj2pPj-28">
          <mxGeometry relative="1" as="geometry" />
        </mxCell>
        <mxCell id="IS9TdEHiG9S3ljIj2pPj-70" value="" style="edgeStyle=orthogonalEdgeStyle;rounded=0;orthogonalLoop=1;jettySize=auto;html=1;entryX=0.5;entryY=0;entryDx=0;entryDy=0;" edge="1" parent="1" source="IS9TdEHiG9S3ljIj2pPj-66" target="IS9TdEHiG9S3ljIj2pPj-28">
          <mxGeometry relative="1" as="geometry" />
        </mxCell>
        <mxCell id="IS9TdEHiG9S3ljIj2pPj-66" value="Kembali ke menu awal" style="rounded=1;whiteSpace=wrap;html=1;" vertex="1" parent="1">
          <mxGeometry x="2190" y="1510" width="90" height="60" as="geometry" />
        </mxCell>
        <mxCell id="IS9TdEHiG9S3ljIj2pPj-72" value="Sistem login admin" style="shape=table;startSize=30;container=1;collapsible=0;childLayout=tableLayout;fixedRows=1;rowLines=0;fontStyle=0;strokeColor=default;fontSize=16;" vertex="1" parent="1">
          <mxGeometry x="3090" y="1330" width="280" height="840" as="geometry" />
        </mxCell>
        <mxCell id="IS9TdEHiG9S3ljIj2pPj-73" value="" style="shape=tableRow;horizontal=0;startSize=0;swimlaneHead=0;swimlaneBody=0;top=0;left=0;bottom=0;right=0;collapsible=0;dropTarget=0;fillColor=none;points=[[0,0.5],[1,0.5]];portConstraint=eastwest;strokeColor=inherit;fontSize=16;" vertex="1" parent="IS9TdEHiG9S3ljIj2pPj-72">
          <mxGeometry y="30" width="280" height="30" as="geometry" />
        </mxCell>
        <mxCell id="IS9TdEHiG9S3ljIj2pPj-74" value="admin" style="shape=partialRectangle;html=1;whiteSpace=wrap;connectable=0;fillColor=none;top=0;left=0;bottom=0;right=0;overflow=hidden;pointerEvents=1;strokeColor=inherit;fontSize=16;" vertex="1" parent="IS9TdEHiG9S3ljIj2pPj-73">
          <mxGeometry width="115" height="30" as="geometry">
            <mxRectangle width="115" height="30" as="alternateBounds" />
          </mxGeometry>
        </mxCell>
        <mxCell id="IS9TdEHiG9S3ljIj2pPj-75" value="Sistem" style="shape=partialRectangle;html=1;whiteSpace=wrap;connectable=0;fillColor=none;top=0;left=0;bottom=0;right=0;align=left;spacingLeft=6;overflow=hidden;strokeColor=inherit;fontSize=16;" vertex="1" parent="IS9TdEHiG9S3ljIj2pPj-73">
          <mxGeometry x="115" width="165" height="30" as="geometry">
            <mxRectangle width="165" height="30" as="alternateBounds" />
          </mxGeometry>
        </mxCell>
        <mxCell id="IS9TdEHiG9S3ljIj2pPj-76" value="" style="shape=tableRow;horizontal=0;startSize=0;swimlaneHead=0;swimlaneBody=0;top=0;left=0;bottom=0;right=0;collapsible=0;dropTarget=0;fillColor=none;points=[[0,0.5],[1,0.5]];portConstraint=eastwest;strokeColor=inherit;fontSize=16;" vertex="1" parent="IS9TdEHiG9S3ljIj2pPj-72">
          <mxGeometry y="60" width="280" height="30" as="geometry" />
        </mxCell>
        <mxCell id="IS9TdEHiG9S3ljIj2pPj-77" value="" style="shape=partialRectangle;html=1;whiteSpace=wrap;connectable=0;fillColor=none;top=0;left=0;bottom=0;right=0;overflow=hidden;strokeColor=inherit;fontSize=16;" vertex="1" parent="IS9TdEHiG9S3ljIj2pPj-76">
          <mxGeometry width="115" height="30" as="geometry">
            <mxRectangle width="115" height="30" as="alternateBounds" />
          </mxGeometry>
        </mxCell>
        <mxCell id="IS9TdEHiG9S3ljIj2pPj-78" value="" style="shape=partialRectangle;html=1;whiteSpace=wrap;connectable=0;fillColor=none;top=0;left=0;bottom=0;right=0;align=left;spacingLeft=6;overflow=hidden;strokeColor=inherit;fontSize=16;" vertex="1" parent="IS9TdEHiG9S3ljIj2pPj-76">
          <mxGeometry x="115" width="165" height="30" as="geometry">
            <mxRectangle width="165" height="30" as="alternateBounds" />
          </mxGeometry>
        </mxCell>
        <mxCell id="IS9TdEHiG9S3ljIj2pPj-79" value="" style="shape=tableRow;horizontal=0;startSize=0;swimlaneHead=0;swimlaneBody=0;top=0;left=0;bottom=0;right=0;collapsible=0;dropTarget=0;fillColor=none;points=[[0,0.5],[1,0.5]];portConstraint=eastwest;strokeColor=inherit;fontSize=16;" vertex="1" parent="IS9TdEHiG9S3ljIj2pPj-72">
          <mxGeometry y="90" width="280" height="750" as="geometry" />
        </mxCell>
        <mxCell id="IS9TdEHiG9S3ljIj2pPj-80" value="" style="shape=partialRectangle;html=1;whiteSpace=wrap;connectable=0;fillColor=none;top=0;left=0;bottom=0;right=0;overflow=hidden;strokeColor=inherit;fontSize=16;" vertex="1" parent="IS9TdEHiG9S3ljIj2pPj-79">
          <mxGeometry width="115" height="750" as="geometry">
            <mxRectangle width="115" height="750" as="alternateBounds" />
          </mxGeometry>
        </mxCell>
        <mxCell id="IS9TdEHiG9S3ljIj2pPj-81" value="" style="shape=partialRectangle;html=1;whiteSpace=wrap;connectable=0;fillColor=none;top=0;left=0;bottom=0;right=0;align=left;spacingLeft=6;overflow=hidden;strokeColor=inherit;fontSize=16;" vertex="1" parent="IS9TdEHiG9S3ljIj2pPj-79">
          <mxGeometry x="115" width="165" height="750" as="geometry">
            <mxRectangle width="165" height="750" as="alternateBounds" />
          </mxGeometry>
        </mxCell>
        <mxCell id="IS9TdEHiG9S3ljIj2pPj-82" value="" style="whiteSpace=wrap;html=1;" vertex="1" parent="IS9TdEHiG9S3ljIj2pPj-79">
          <mxGeometry x="280" width="NaN" height="750" as="geometry">
            <mxRectangle width="NaN" height="750" as="alternateBounds" />
          </mxGeometry>
        </mxCell>
        <mxCell id="IS9TdEHiG9S3ljIj2pPj-83" value="" style="ellipse;whiteSpace=wrap;html=1;" vertex="1" parent="IS9TdEHiG9S3ljIj2pPj-79">
          <mxGeometry width="NaN" height="750" as="geometry">
            <mxRectangle width="NaN" height="750" as="alternateBounds" />
          </mxGeometry>
        </mxCell>
        <mxCell id="IS9TdEHiG9S3ljIj2pPj-84" value="" style="endArrow=none;html=1;rounded=0;entryX=1;entryY=0.948;entryDx=0;entryDy=0;exitX=0.001;exitY=0.979;exitDx=0;exitDy=0;exitPerimeter=0;entryPerimeter=0;" edge="1" parent="IS9TdEHiG9S3ljIj2pPj-72" source="IS9TdEHiG9S3ljIj2pPj-73" target="IS9TdEHiG9S3ljIj2pPj-73">
          <mxGeometry width="50" height="50" relative="1" as="geometry">
            <mxPoint x="-25" y="270" as="sourcePoint" />
            <mxPoint x="25" y="220" as="targetPoint" />
            <Array as="points">
              <mxPoint x="115" y="60" />
            </Array>
          </mxGeometry>
        </mxCell>
        <mxCell id="IS9TdEHiG9S3ljIj2pPj-85" value="" style="ellipse;html=1;shape=endState;fillColor=#000000;strokeColor=#ff0000;" vertex="1" parent="1">
          <mxGeometry x="3245" y="2100" width="30" height="30" as="geometry" />
        </mxCell>
        <mxCell id="IS9TdEHiG9S3ljIj2pPj-86" value="" style="edgeStyle=orthogonalEdgeStyle;rounded=0;orthogonalLoop=1;jettySize=auto;html=1;" edge="1" parent="1" source="IS9TdEHiG9S3ljIj2pPj-87" target="IS9TdEHiG9S3ljIj2pPj-90">
          <mxGeometry relative="1" as="geometry" />
        </mxCell>
        <mxCell id="IS9TdEHiG9S3ljIj2pPj-87" value="" style="shape=waypoint;sketch=0;fillStyle=solid;size=25;pointerEvents=1;points=[];fillColor=none;resizable=0;rotatable=0;perimeter=centerPerimeter;snapToPoint=1;" vertex="1" parent="1">
          <mxGeometry x="3245" y="1409.5" width="20" height="20" as="geometry" />
        </mxCell>
        <mxCell id="IS9TdEHiG9S3ljIj2pPj-88" style="edgeStyle=orthogonalEdgeStyle;rounded=0;orthogonalLoop=1;jettySize=auto;html=1;entryX=0.908;entryY=0.353;entryDx=0;entryDy=0;entryPerimeter=0;" edge="1" parent="1" source="IS9TdEHiG9S3ljIj2pPj-87" target="IS9TdEHiG9S3ljIj2pPj-87">
          <mxGeometry relative="1" as="geometry" />
        </mxCell>
        <mxCell id="IS9TdEHiG9S3ljIj2pPj-89" value="" style="edgeStyle=orthogonalEdgeStyle;rounded=0;orthogonalLoop=1;jettySize=auto;html=1;" edge="1" parent="1" source="IS9TdEHiG9S3ljIj2pPj-90" target="IS9TdEHiG9S3ljIj2pPj-92">
          <mxGeometry relative="1" as="geometry">
            <Array as="points">
              <mxPoint x="3255" y="1530" />
              <mxPoint x="3140" y="1530" />
            </Array>
          </mxGeometry>
        </mxCell>
        <mxCell id="IS9TdEHiG9S3ljIj2pPj-90" value="Halaman web penyewaan lapangan tenis" style="rounded=1;whiteSpace=wrap;html=1;" vertex="1" parent="1">
          <mxGeometry x="3210" y="1460" width="90" height="60" as="geometry" />
        </mxCell>
        <mxCell id="IS9TdEHiG9S3ljIj2pPj-91" value="" style="edgeStyle=orthogonalEdgeStyle;rounded=0;orthogonalLoop=1;jettySize=auto;html=1;" edge="1" parent="1" source="IS9TdEHiG9S3ljIj2pPj-92" target="IS9TdEHiG9S3ljIj2pPj-94">
          <mxGeometry relative="1" as="geometry">
            <Array as="points">
              <mxPoint x="3145" y="1630" />
            </Array>
          </mxGeometry>
        </mxCell>
        <mxCell id="IS9TdEHiG9S3ljIj2pPj-92" value="Pilih halaman Login" style="rounded=1;whiteSpace=wrap;html=1;" vertex="1" parent="1">
          <mxGeometry x="3110" y="1550" width="80" height="60" as="geometry" />
        </mxCell>
        <mxCell id="IS9TdEHiG9S3ljIj2pPj-93" value="" style="edgeStyle=orthogonalEdgeStyle;rounded=0;orthogonalLoop=1;jettySize=auto;html=1;" edge="1" parent="1" source="IS9TdEHiG9S3ljIj2pPj-94" target="IS9TdEHiG9S3ljIj2pPj-96">
          <mxGeometry relative="1" as="geometry" />
        </mxCell>
        <mxCell id="IS9TdEHiG9S3ljIj2pPj-94" value="Menampilkan Halaman Login" style="rounded=1;whiteSpace=wrap;html=1;" vertex="1" parent="1">
          <mxGeometry x="3215" y="1600" width="90" height="60" as="geometry" />
        </mxCell>
        <mxCell id="IS9TdEHiG9S3ljIj2pPj-95" value="" style="edgeStyle=orthogonalEdgeStyle;rounded=0;orthogonalLoop=1;jettySize=auto;html=1;" edge="1" parent="1" source="IS9TdEHiG9S3ljIj2pPj-96" target="IS9TdEHiG9S3ljIj2pPj-98">
          <mxGeometry relative="1" as="geometry">
            <Array as="points">
              <mxPoint x="3260" y="1760" />
              <mxPoint x="3143" y="1760" />
            </Array>
          </mxGeometry>
        </mxCell>
        <mxCell id="IS9TdEHiG9S3ljIj2pPj-96" value="Form Login" style="rounded=1;whiteSpace=wrap;html=1;" vertex="1" parent="1">
          <mxGeometry x="3215" y="1690" width="90" height="60" as="geometry" />
        </mxCell>
        <mxCell id="IS9TdEHiG9S3ljIj2pPj-97" value="" style="edgeStyle=orthogonalEdgeStyle;rounded=0;orthogonalLoop=1;jettySize=auto;html=1;" edge="1" parent="1" source="IS9TdEHiG9S3ljIj2pPj-98" target="IS9TdEHiG9S3ljIj2pPj-100">
          <mxGeometry relative="1" as="geometry">
            <Array as="points">
              <mxPoint x="3143" y="1840" />
            </Array>
          </mxGeometry>
        </mxCell>
        <mxCell id="IS9TdEHiG9S3ljIj2pPj-98" value="Mengisi form login&amp;nbsp;" style="rounded=1;whiteSpace=wrap;html=1;" vertex="1" parent="1">
          <mxGeometry x="3100" y="1750" width="85" height="50" as="geometry" />
        </mxCell>
        <mxCell id="IS9TdEHiG9S3ljIj2pPj-106" value="" style="edgeStyle=orthogonalEdgeStyle;rounded=0;orthogonalLoop=1;jettySize=auto;html=1;" edge="1" parent="1" source="IS9TdEHiG9S3ljIj2pPj-100" target="IS9TdEHiG9S3ljIj2pPj-105">
          <mxGeometry relative="1" as="geometry" />
        </mxCell>
        <mxCell id="IS9TdEHiG9S3ljIj2pPj-100" value="Verifikasi" style="rounded=1;whiteSpace=wrap;html=1;" vertex="1" parent="1">
          <mxGeometry x="3215" y="1810" width="90" height="55" as="geometry" />
        </mxCell>
        <mxCell id="IS9TdEHiG9S3ljIj2pPj-102" value="" style="edgeStyle=orthogonalEdgeStyle;rounded=0;orthogonalLoop=1;jettySize=auto;html=1;entryX=0.5;entryY=0;entryDx=0;entryDy=0;" edge="1" parent="1" source="IS9TdEHiG9S3ljIj2pPj-103" target="IS9TdEHiG9S3ljIj2pPj-85">
          <mxGeometry relative="1" as="geometry" />
        </mxCell>
        <mxCell id="IS9TdEHiG9S3ljIj2pPj-103" value="Dashboard admin" style="rounded=1;whiteSpace=wrap;html=1;" vertex="1" parent="1">
          <mxGeometry x="3215" y="2010" width="90" height="60" as="geometry" />
        </mxCell>
        <mxCell id="IS9TdEHiG9S3ljIj2pPj-109" style="edgeStyle=orthogonalEdgeStyle;rounded=0;orthogonalLoop=1;jettySize=auto;html=1;exitX=1;exitY=0.5;exitDx=0;exitDy=0;entryX=1;entryY=0.5;entryDx=0;entryDy=0;" edge="1" parent="1" source="IS9TdEHiG9S3ljIj2pPj-105" target="IS9TdEHiG9S3ljIj2pPj-96">
          <mxGeometry relative="1" as="geometry">
            <Array as="points">
              <mxPoint x="3340" y="1935" />
              <mxPoint x="3340" y="1720" />
            </Array>
          </mxGeometry>
        </mxCell>
        <mxCell id="IS9TdEHiG9S3ljIj2pPj-112" value="" style="edgeStyle=orthogonalEdgeStyle;rounded=0;orthogonalLoop=1;jettySize=auto;html=1;" edge="1" parent="1" source="IS9TdEHiG9S3ljIj2pPj-105" target="IS9TdEHiG9S3ljIj2pPj-103">
          <mxGeometry relative="1" as="geometry" />
        </mxCell>
        <mxCell id="IS9TdEHiG9S3ljIj2pPj-105" value="" style="rhombus;whiteSpace=wrap;html=1;" vertex="1" parent="1">
          <mxGeometry x="3235" y="1910" width="50" height="50" as="geometry" />
        </mxCell>
        <mxCell id="IS9TdEHiG9S3ljIj2pPj-110" value="No" style="text;html=1;align=center;verticalAlign=middle;whiteSpace=wrap;rounded=0;" vertex="1" parent="1">
          <mxGeometry x="3300" y="1780" width="60" height="30" as="geometry" />
        </mxCell>
        <mxCell id="IS9TdEHiG9S3ljIj2pPj-111" value="Yes" style="text;html=1;align=center;verticalAlign=middle;whiteSpace=wrap;rounded=0;" vertex="1" parent="1">
          <mxGeometry x="3250" y="1970" width="60" height="30" as="geometry" />
        </mxCell>
        <mxCell id="IS9TdEHiG9S3ljIj2pPj-113" value="Valid?" style="text;html=1;align=center;verticalAlign=middle;whiteSpace=wrap;rounded=0;" vertex="1" parent="1">
          <mxGeometry x="3230" y="1920" width="60" height="30" as="geometry" />
        </mxCell>
        <mxCell id="IS9TdEHiG9S3ljIj2pPj-114" value="Sistem login customer" style="shape=table;startSize=30;container=1;collapsible=0;childLayout=tableLayout;fixedRows=1;rowLines=0;fontStyle=0;strokeColor=default;fontSize=16;" vertex="1" parent="1">
          <mxGeometry x="2630" y="1460" width="280" height="840" as="geometry" />
        </mxCell>
        <mxCell id="IS9TdEHiG9S3ljIj2pPj-115" value="" style="shape=tableRow;horizontal=0;startSize=0;swimlaneHead=0;swimlaneBody=0;top=0;left=0;bottom=0;right=0;collapsible=0;dropTarget=0;fillColor=none;points=[[0,0.5],[1,0.5]];portConstraint=eastwest;strokeColor=inherit;fontSize=16;" vertex="1" parent="IS9TdEHiG9S3ljIj2pPj-114">
          <mxGeometry y="30" width="280" height="30" as="geometry" />
        </mxCell>
        <mxCell id="IS9TdEHiG9S3ljIj2pPj-116" value="costumer" style="shape=partialRectangle;html=1;whiteSpace=wrap;connectable=0;fillColor=none;top=0;left=0;bottom=0;right=0;overflow=hidden;pointerEvents=1;strokeColor=inherit;fontSize=16;" vertex="1" parent="IS9TdEHiG9S3ljIj2pPj-115">
          <mxGeometry width="110" height="30" as="geometry">
            <mxRectangle width="110" height="30" as="alternateBounds" />
          </mxGeometry>
        </mxCell>
        <mxCell id="IS9TdEHiG9S3ljIj2pPj-117" value="Sistem" style="shape=partialRectangle;html=1;whiteSpace=wrap;connectable=0;fillColor=none;top=0;left=0;bottom=0;right=0;align=left;spacingLeft=6;overflow=hidden;strokeColor=inherit;fontSize=16;" vertex="1" parent="IS9TdEHiG9S3ljIj2pPj-115">
          <mxGeometry x="110" width="170" height="30" as="geometry">
            <mxRectangle width="170" height="30" as="alternateBounds" />
          </mxGeometry>
        </mxCell>
        <mxCell id="IS9TdEHiG9S3ljIj2pPj-118" value="" style="shape=tableRow;horizontal=0;startSize=0;swimlaneHead=0;swimlaneBody=0;top=0;left=0;bottom=0;right=0;collapsible=0;dropTarget=0;fillColor=none;points=[[0,0.5],[1,0.5]];portConstraint=eastwest;strokeColor=inherit;fontSize=16;" vertex="1" parent="IS9TdEHiG9S3ljIj2pPj-114">
          <mxGeometry y="60" width="280" height="30" as="geometry" />
        </mxCell>
        <mxCell id="IS9TdEHiG9S3ljIj2pPj-119" value="" style="shape=partialRectangle;html=1;whiteSpace=wrap;connectable=0;fillColor=none;top=0;left=0;bottom=0;right=0;overflow=hidden;strokeColor=inherit;fontSize=16;" vertex="1" parent="IS9TdEHiG9S3ljIj2pPj-118">
          <mxGeometry width="110" height="30" as="geometry">
            <mxRectangle width="110" height="30" as="alternateBounds" />
          </mxGeometry>
        </mxCell>
        <mxCell id="IS9TdEHiG9S3ljIj2pPj-120" value="" style="shape=partialRectangle;html=1;whiteSpace=wrap;connectable=0;fillColor=none;top=0;left=0;bottom=0;right=0;align=left;spacingLeft=6;overflow=hidden;strokeColor=inherit;fontSize=16;" vertex="1" parent="IS9TdEHiG9S3ljIj2pPj-118">
          <mxGeometry x="110" width="170" height="30" as="geometry">
            <mxRectangle width="170" height="30" as="alternateBounds" />
          </mxGeometry>
        </mxCell>
        <mxCell id="IS9TdEHiG9S3ljIj2pPj-121" value="" style="shape=tableRow;horizontal=0;startSize=0;swimlaneHead=0;swimlaneBody=0;top=0;left=0;bottom=0;right=0;collapsible=0;dropTarget=0;fillColor=none;points=[[0,0.5],[1,0.5]];portConstraint=eastwest;strokeColor=inherit;fontSize=16;" vertex="1" parent="IS9TdEHiG9S3ljIj2pPj-114">
          <mxGeometry y="90" width="280" height="750" as="geometry" />
        </mxCell>
        <mxCell id="IS9TdEHiG9S3ljIj2pPj-122" value="" style="shape=partialRectangle;html=1;whiteSpace=wrap;connectable=0;fillColor=none;top=0;left=0;bottom=0;right=0;overflow=hidden;strokeColor=inherit;fontSize=16;" vertex="1" parent="IS9TdEHiG9S3ljIj2pPj-121">
          <mxGeometry width="110" height="750" as="geometry">
            <mxRectangle width="110" height="750" as="alternateBounds" />
          </mxGeometry>
        </mxCell>
        <mxCell id="IS9TdEHiG9S3ljIj2pPj-123" value="" style="shape=partialRectangle;html=1;whiteSpace=wrap;connectable=0;fillColor=none;top=0;left=0;bottom=0;right=0;align=left;spacingLeft=6;overflow=hidden;strokeColor=inherit;fontSize=16;" vertex="1" parent="IS9TdEHiG9S3ljIj2pPj-121">
          <mxGeometry x="110" width="170" height="750" as="geometry">
            <mxRectangle width="170" height="750" as="alternateBounds" />
          </mxGeometry>
        </mxCell>
        <mxCell id="IS9TdEHiG9S3ljIj2pPj-124" value="" style="whiteSpace=wrap;html=1;" vertex="1" parent="IS9TdEHiG9S3ljIj2pPj-121">
          <mxGeometry x="280" width="NaN" height="750" as="geometry">
            <mxRectangle width="NaN" height="750" as="alternateBounds" />
          </mxGeometry>
        </mxCell>
        <mxCell id="IS9TdEHiG9S3ljIj2pPj-125" value="" style="ellipse;whiteSpace=wrap;html=1;" vertex="1" parent="IS9TdEHiG9S3ljIj2pPj-121">
          <mxGeometry width="NaN" height="750" as="geometry">
            <mxRectangle width="NaN" height="750" as="alternateBounds" />
          </mxGeometry>
        </mxCell>
        <mxCell id="IS9TdEHiG9S3ljIj2pPj-126" value="" style="endArrow=none;html=1;rounded=0;entryX=1;entryY=0.948;entryDx=0;entryDy=0;exitX=0.001;exitY=0.979;exitDx=0;exitDy=0;exitPerimeter=0;entryPerimeter=0;" edge="1" parent="IS9TdEHiG9S3ljIj2pPj-114" source="IS9TdEHiG9S3ljIj2pPj-115" target="IS9TdEHiG9S3ljIj2pPj-115">
          <mxGeometry width="50" height="50" relative="1" as="geometry">
            <mxPoint x="-25" y="270" as="sourcePoint" />
            <mxPoint x="25" y="220" as="targetPoint" />
            <Array as="points">
              <mxPoint x="115" y="60" />
            </Array>
          </mxGeometry>
        </mxCell>
        <mxCell id="IS9TdEHiG9S3ljIj2pPj-127" value="" style="ellipse;html=1;shape=endState;fillColor=#000000;strokeColor=#ff0000;" vertex="1" parent="1">
          <mxGeometry x="2785" y="2230" width="30" height="30" as="geometry" />
        </mxCell>
        <mxCell id="IS9TdEHiG9S3ljIj2pPj-128" value="" style="edgeStyle=orthogonalEdgeStyle;rounded=0;orthogonalLoop=1;jettySize=auto;html=1;" edge="1" parent="1" source="IS9TdEHiG9S3ljIj2pPj-129" target="IS9TdEHiG9S3ljIj2pPj-132">
          <mxGeometry relative="1" as="geometry" />
        </mxCell>
        <mxCell id="IS9TdEHiG9S3ljIj2pPj-129" value="" style="shape=waypoint;sketch=0;fillStyle=solid;size=25;pointerEvents=1;points=[];fillColor=none;resizable=0;rotatable=0;perimeter=centerPerimeter;snapToPoint=1;" vertex="1" parent="1">
          <mxGeometry x="2785" y="1539.5" width="20" height="20" as="geometry" />
        </mxCell>
        <mxCell id="IS9TdEHiG9S3ljIj2pPj-130" style="edgeStyle=orthogonalEdgeStyle;rounded=0;orthogonalLoop=1;jettySize=auto;html=1;entryX=0.908;entryY=0.353;entryDx=0;entryDy=0;entryPerimeter=0;" edge="1" parent="1" source="IS9TdEHiG9S3ljIj2pPj-129" target="IS9TdEHiG9S3ljIj2pPj-129">
          <mxGeometry relative="1" as="geometry" />
        </mxCell>
        <mxCell id="IS9TdEHiG9S3ljIj2pPj-131" value="" style="edgeStyle=orthogonalEdgeStyle;rounded=0;orthogonalLoop=1;jettySize=auto;html=1;" edge="1" parent="1" source="IS9TdEHiG9S3ljIj2pPj-132" target="IS9TdEHiG9S3ljIj2pPj-134">
          <mxGeometry relative="1" as="geometry">
            <Array as="points">
              <mxPoint x="2795" y="1660" />
              <mxPoint x="2680" y="1660" />
            </Array>
          </mxGeometry>
        </mxCell>
        <mxCell id="IS9TdEHiG9S3ljIj2pPj-132" value="Halaman web penyewaan lapangan tenis" style="rounded=1;whiteSpace=wrap;html=1;" vertex="1" parent="1">
          <mxGeometry x="2750" y="1590" width="90" height="60" as="geometry" />
        </mxCell>
        <mxCell id="IS9TdEHiG9S3ljIj2pPj-196" value="" style="edgeStyle=orthogonalEdgeStyle;rounded=0;orthogonalLoop=1;jettySize=auto;html=1;" edge="1" parent="1" source="IS9TdEHiG9S3ljIj2pPj-134" target="IS9TdEHiG9S3ljIj2pPj-152">
          <mxGeometry relative="1" as="geometry" />
        </mxCell>
        <mxCell id="IS9TdEHiG9S3ljIj2pPj-134" value="Pilih halaman login" style="rounded=1;whiteSpace=wrap;html=1;" vertex="1" parent="1">
          <mxGeometry x="2650" y="1680" width="80" height="60" as="geometry" />
        </mxCell>
        <mxCell id="IS9TdEHiG9S3ljIj2pPj-135" value="" style="edgeStyle=orthogonalEdgeStyle;rounded=0;orthogonalLoop=1;jettySize=auto;html=1;" edge="1" parent="1" source="IS9TdEHiG9S3ljIj2pPj-136" target="IS9TdEHiG9S3ljIj2pPj-138">
          <mxGeometry relative="1" as="geometry" />
        </mxCell>
        <mxCell id="IS9TdEHiG9S3ljIj2pPj-136" value="Menampilkan Halaman Login" style="rounded=1;whiteSpace=wrap;html=1;" vertex="1" parent="1">
          <mxGeometry x="2755" y="1790" width="90" height="60" as="geometry" />
        </mxCell>
        <mxCell id="IS9TdEHiG9S3ljIj2pPj-137" value="" style="edgeStyle=orthogonalEdgeStyle;rounded=0;orthogonalLoop=1;jettySize=auto;html=1;" edge="1" parent="1" source="IS9TdEHiG9S3ljIj2pPj-138" target="IS9TdEHiG9S3ljIj2pPj-140">
          <mxGeometry relative="1" as="geometry">
            <Array as="points">
              <mxPoint x="2800" y="1890" />
              <mxPoint x="2683" y="1890" />
            </Array>
          </mxGeometry>
        </mxCell>
        <mxCell id="IS9TdEHiG9S3ljIj2pPj-138" value="Form Login" style="rounded=1;whiteSpace=wrap;html=1;" vertex="1" parent="1">
          <mxGeometry x="2755" y="1870" width="90" height="60" as="geometry" />
        </mxCell>
        <mxCell id="IS9TdEHiG9S3ljIj2pPj-139" value="" style="edgeStyle=orthogonalEdgeStyle;rounded=0;orthogonalLoop=1;jettySize=auto;html=1;" edge="1" parent="1" source="IS9TdEHiG9S3ljIj2pPj-140" target="IS9TdEHiG9S3ljIj2pPj-142">
          <mxGeometry relative="1" as="geometry">
            <Array as="points">
              <mxPoint x="2683" y="1970" />
            </Array>
          </mxGeometry>
        </mxCell>
        <mxCell id="IS9TdEHiG9S3ljIj2pPj-140" value="Mengisi form login&amp;nbsp;" style="rounded=1;whiteSpace=wrap;html=1;" vertex="1" parent="1">
          <mxGeometry x="2640" y="1940" width="85" height="50" as="geometry" />
        </mxCell>
        <mxCell id="IS9TdEHiG9S3ljIj2pPj-141" value="" style="edgeStyle=orthogonalEdgeStyle;rounded=0;orthogonalLoop=1;jettySize=auto;html=1;" edge="1" parent="1" source="IS9TdEHiG9S3ljIj2pPj-142" target="IS9TdEHiG9S3ljIj2pPj-148">
          <mxGeometry relative="1" as="geometry" />
        </mxCell>
        <mxCell id="IS9TdEHiG9S3ljIj2pPj-142" value="Verifikasi" style="rounded=1;whiteSpace=wrap;html=1;" vertex="1" parent="1">
          <mxGeometry x="2755" y="1940" width="90" height="55" as="geometry" />
        </mxCell>
        <mxCell id="IS9TdEHiG9S3ljIj2pPj-144" value="" style="edgeStyle=orthogonalEdgeStyle;rounded=0;orthogonalLoop=1;jettySize=auto;html=1;entryX=0.5;entryY=0;entryDx=0;entryDy=0;" edge="1" parent="1" source="IS9TdEHiG9S3ljIj2pPj-145" target="IS9TdEHiG9S3ljIj2pPj-127">
          <mxGeometry relative="1" as="geometry" />
        </mxCell>
        <mxCell id="IS9TdEHiG9S3ljIj2pPj-145" value="Dashboard costumer" style="rounded=1;whiteSpace=wrap;html=1;" vertex="1" parent="1">
          <mxGeometry x="2755" y="2140" width="90" height="60" as="geometry" />
        </mxCell>
        <mxCell id="IS9TdEHiG9S3ljIj2pPj-146" style="edgeStyle=orthogonalEdgeStyle;rounded=0;orthogonalLoop=1;jettySize=auto;html=1;exitX=1;exitY=0.5;exitDx=0;exitDy=0;entryX=1;entryY=0.5;entryDx=0;entryDy=0;" edge="1" parent="1" source="IS9TdEHiG9S3ljIj2pPj-148" target="IS9TdEHiG9S3ljIj2pPj-138">
          <mxGeometry relative="1" as="geometry">
            <Array as="points">
              <mxPoint x="2880" y="2065" />
              <mxPoint x="2880" y="1900" />
            </Array>
          </mxGeometry>
        </mxCell>
        <mxCell id="IS9TdEHiG9S3ljIj2pPj-147" value="" style="edgeStyle=orthogonalEdgeStyle;rounded=0;orthogonalLoop=1;jettySize=auto;html=1;" edge="1" parent="1" source="IS9TdEHiG9S3ljIj2pPj-148" target="IS9TdEHiG9S3ljIj2pPj-145">
          <mxGeometry relative="1" as="geometry" />
        </mxCell>
        <mxCell id="IS9TdEHiG9S3ljIj2pPj-148" value="" style="rhombus;whiteSpace=wrap;html=1;" vertex="1" parent="1">
          <mxGeometry x="2775" y="2040" width="50" height="50" as="geometry" />
        </mxCell>
        <mxCell id="IS9TdEHiG9S3ljIj2pPj-149" value="No" style="text;html=1;align=center;verticalAlign=middle;whiteSpace=wrap;rounded=0;" vertex="1" parent="1">
          <mxGeometry x="2840" y="1950" width="60" height="30" as="geometry" />
        </mxCell>
        <mxCell id="IS9TdEHiG9S3ljIj2pPj-150" value="Yes" style="text;html=1;align=center;verticalAlign=middle;whiteSpace=wrap;rounded=0;" vertex="1" parent="1">
          <mxGeometry x="2790" y="2100" width="60" height="30" as="geometry" />
        </mxCell>
        <mxCell id="IS9TdEHiG9S3ljIj2pPj-151" value="Valid?" style="text;html=1;align=center;verticalAlign=middle;whiteSpace=wrap;rounded=0;" vertex="1" parent="1">
          <mxGeometry x="2770" y="2050" width="60" height="30" as="geometry" />
        </mxCell>
        <mxCell id="IS9TdEHiG9S3ljIj2pPj-198" style="edgeStyle=orthogonalEdgeStyle;rounded=0;orthogonalLoop=1;jettySize=auto;html=1;exitX=1;exitY=0.5;exitDx=0;exitDy=0;entryX=0;entryY=0.5;entryDx=0;entryDy=0;" edge="1" parent="1" source="IS9TdEHiG9S3ljIj2pPj-152" target="IS9TdEHiG9S3ljIj2pPj-136">
          <mxGeometry relative="1" as="geometry">
            <Array as="points">
              <mxPoint x="2690" y="1775" />
              <mxPoint x="2690" y="1820" />
            </Array>
          </mxGeometry>
        </mxCell>
        <mxCell id="IS9TdEHiG9S3ljIj2pPj-203" style="edgeStyle=orthogonalEdgeStyle;rounded=0;orthogonalLoop=1;jettySize=auto;html=1;exitX=1;exitY=0.5;exitDx=0;exitDy=0;entryX=0;entryY=0.5;entryDx=0;entryDy=0;" edge="1" parent="1" source="IS9TdEHiG9S3ljIj2pPj-152" target="IS9TdEHiG9S3ljIj2pPj-201">
          <mxGeometry relative="1" as="geometry" />
        </mxCell>
        <mxCell id="IS9TdEHiG9S3ljIj2pPj-152" value="akun" style="rhombus;whiteSpace=wrap;html=1;" vertex="1" parent="1">
          <mxGeometry x="2670" y="1755" width="40" height="40" as="geometry" />
        </mxCell>
        <mxCell id="IS9TdEHiG9S3ljIj2pPj-199" value="sudah punya" style="text;html=1;align=center;verticalAlign=middle;whiteSpace=wrap;rounded=0;" vertex="1" parent="1">
          <mxGeometry x="2620" y="1760" width="60" height="30" as="geometry" />
        </mxCell>
        <mxCell id="IS9TdEHiG9S3ljIj2pPj-200" value="yes" style="text;html=1;align=center;verticalAlign=middle;whiteSpace=wrap;rounded=0;" vertex="1" parent="1">
          <mxGeometry x="2690" y="1795" width="60" height="30" as="geometry" />
        </mxCell>
        <mxCell id="IS9TdEHiG9S3ljIj2pPj-201" value="registrasi" style="rounded=1;whiteSpace=wrap;html=1;" vertex="1" parent="1">
          <mxGeometry x="2765" y="1730" width="70" height="50" as="geometry" />
        </mxCell>
        <mxCell id="IS9TdEHiG9S3ljIj2pPj-204" value="no" style="text;html=1;align=center;verticalAlign=middle;whiteSpace=wrap;rounded=0;" vertex="1" parent="1">
          <mxGeometry x="2695" y="1750" width="60" height="30" as="geometry" />
        </mxCell>
        <mxCell id="IS9TdEHiG9S3ljIj2pPj-207" value="Sistem login admin" style="shape=table;startSize=30;container=1;collapsible=0;childLayout=tableLayout;fixedRows=1;rowLines=0;fontStyle=0;strokeColor=default;fontSize=16;" vertex="1" parent="1">
          <mxGeometry x="1880" y="2050" width="300" height="840" as="geometry" />
        </mxCell>
        <mxCell id="IS9TdEHiG9S3ljIj2pPj-208" value="" style="shape=tableRow;horizontal=0;startSize=0;swimlaneHead=0;swimlaneBody=0;top=0;left=0;bottom=0;right=0;collapsible=0;dropTarget=0;fillColor=none;points=[[0,0.5],[1,0.5]];portConstraint=eastwest;strokeColor=inherit;fontSize=16;" vertex="1" parent="IS9TdEHiG9S3ljIj2pPj-207">
          <mxGeometry y="30" width="300" height="30" as="geometry" />
        </mxCell>
        <mxCell id="IS9TdEHiG9S3ljIj2pPj-209" value="admin" style="shape=partialRectangle;html=1;whiteSpace=wrap;connectable=0;fillColor=none;top=0;left=0;bottom=0;right=0;overflow=hidden;pointerEvents=1;strokeColor=inherit;fontSize=16;" vertex="1" parent="IS9TdEHiG9S3ljIj2pPj-208">
          <mxGeometry width="150" height="30" as="geometry">
            <mxRectangle width="150" height="30" as="alternateBounds" />
          </mxGeometry>
        </mxCell>
        <mxCell id="IS9TdEHiG9S3ljIj2pPj-210" value="Sistem" style="shape=partialRectangle;html=1;whiteSpace=wrap;connectable=0;fillColor=none;top=0;left=0;bottom=0;right=0;align=left;spacingLeft=6;overflow=hidden;strokeColor=inherit;fontSize=16;" vertex="1" parent="IS9TdEHiG9S3ljIj2pPj-208">
          <mxGeometry x="150" width="150" height="30" as="geometry">
            <mxRectangle width="150" height="30" as="alternateBounds" />
          </mxGeometry>
        </mxCell>
        <mxCell id="IS9TdEHiG9S3ljIj2pPj-211" value="" style="shape=tableRow;horizontal=0;startSize=0;swimlaneHead=0;swimlaneBody=0;top=0;left=0;bottom=0;right=0;collapsible=0;dropTarget=0;fillColor=none;points=[[0,0.5],[1,0.5]];portConstraint=eastwest;strokeColor=inherit;fontSize=16;" vertex="1" parent="IS9TdEHiG9S3ljIj2pPj-207">
          <mxGeometry y="60" width="300" height="30" as="geometry" />
        </mxCell>
        <mxCell id="IS9TdEHiG9S3ljIj2pPj-212" value="" style="shape=partialRectangle;html=1;whiteSpace=wrap;connectable=0;fillColor=none;top=0;left=0;bottom=0;right=0;overflow=hidden;strokeColor=inherit;fontSize=16;" vertex="1" parent="IS9TdEHiG9S3ljIj2pPj-211">
          <mxGeometry width="150" height="30" as="geometry">
            <mxRectangle width="150" height="30" as="alternateBounds" />
          </mxGeometry>
        </mxCell>
        <mxCell id="IS9TdEHiG9S3ljIj2pPj-213" value="" style="shape=partialRectangle;html=1;whiteSpace=wrap;connectable=0;fillColor=none;top=0;left=0;bottom=0;right=0;align=left;spacingLeft=6;overflow=hidden;strokeColor=inherit;fontSize=16;" vertex="1" parent="IS9TdEHiG9S3ljIj2pPj-211">
          <mxGeometry x="150" width="150" height="30" as="geometry">
            <mxRectangle width="150" height="30" as="alternateBounds" />
          </mxGeometry>
        </mxCell>
        <mxCell id="IS9TdEHiG9S3ljIj2pPj-214" value="" style="shape=tableRow;horizontal=0;startSize=0;swimlaneHead=0;swimlaneBody=0;top=0;left=0;bottom=0;right=0;collapsible=0;dropTarget=0;fillColor=none;points=[[0,0.5],[1,0.5]];portConstraint=eastwest;strokeColor=inherit;fontSize=16;" vertex="1" parent="IS9TdEHiG9S3ljIj2pPj-207">
          <mxGeometry y="90" width="300" height="750" as="geometry" />
        </mxCell>
        <mxCell id="IS9TdEHiG9S3ljIj2pPj-215" value="" style="shape=partialRectangle;html=1;whiteSpace=wrap;connectable=0;fillColor=none;top=0;left=0;bottom=0;right=0;overflow=hidden;strokeColor=inherit;fontSize=16;" vertex="1" parent="IS9TdEHiG9S3ljIj2pPj-214">
          <mxGeometry width="150" height="750" as="geometry">
            <mxRectangle width="150" height="750" as="alternateBounds" />
          </mxGeometry>
        </mxCell>
        <mxCell id="IS9TdEHiG9S3ljIj2pPj-216" value="" style="shape=partialRectangle;html=1;whiteSpace=wrap;connectable=0;fillColor=none;top=0;left=0;bottom=0;right=0;align=left;spacingLeft=6;overflow=hidden;strokeColor=inherit;fontSize=16;" vertex="1" parent="IS9TdEHiG9S3ljIj2pPj-214">
          <mxGeometry x="150" width="150" height="750" as="geometry">
            <mxRectangle width="150" height="750" as="alternateBounds" />
          </mxGeometry>
        </mxCell>
        <mxCell id="IS9TdEHiG9S3ljIj2pPj-217" value="" style="whiteSpace=wrap;html=1;" vertex="1" parent="IS9TdEHiG9S3ljIj2pPj-214">
          <mxGeometry x="300" width="NaN" height="750" as="geometry">
            <mxRectangle width="NaN" height="750" as="alternateBounds" />
          </mxGeometry>
        </mxCell>
        <mxCell id="IS9TdEHiG9S3ljIj2pPj-218" value="" style="ellipse;whiteSpace=wrap;html=1;" vertex="1" parent="IS9TdEHiG9S3ljIj2pPj-214">
          <mxGeometry width="NaN" height="750" as="geometry">
            <mxRectangle width="NaN" height="750" as="alternateBounds" />
          </mxGeometry>
        </mxCell>
        <mxCell id="IS9TdEHiG9S3ljIj2pPj-219" value="" style="endArrow=none;html=1;rounded=0;entryX=1;entryY=0.948;entryDx=0;entryDy=0;exitX=0.001;exitY=0.979;exitDx=0;exitDy=0;exitPerimeter=0;entryPerimeter=0;" edge="1" parent="IS9TdEHiG9S3ljIj2pPj-207" source="IS9TdEHiG9S3ljIj2pPj-208" target="IS9TdEHiG9S3ljIj2pPj-208">
          <mxGeometry width="50" height="50" relative="1" as="geometry">
            <mxPoint x="-25" y="270" as="sourcePoint" />
            <mxPoint x="25" y="220" as="targetPoint" />
            <Array as="points">
              <mxPoint x="115" y="60" />
            </Array>
          </mxGeometry>
        </mxCell>
        <mxCell id="IS9TdEHiG9S3ljIj2pPj-220" value="" style="ellipse;html=1;shape=endState;fillColor=#000000;strokeColor=#ff0000;" vertex="1" parent="1">
          <mxGeometry x="2075" y="2850" width="30" height="30" as="geometry" />
        </mxCell>
        <mxCell id="IS9TdEHiG9S3ljIj2pPj-221" value="" style="edgeStyle=orthogonalEdgeStyle;rounded=0;orthogonalLoop=1;jettySize=auto;html=1;" edge="1" parent="1" source="IS9TdEHiG9S3ljIj2pPj-222" target="IS9TdEHiG9S3ljIj2pPj-225">
          <mxGeometry relative="1" as="geometry" />
        </mxCell>
        <mxCell id="IS9TdEHiG9S3ljIj2pPj-222" value="" style="shape=waypoint;sketch=0;fillStyle=solid;size=25;pointerEvents=1;points=[];fillColor=none;resizable=0;rotatable=0;perimeter=centerPerimeter;snapToPoint=1;" vertex="1" parent="1">
          <mxGeometry x="2075" y="2129.5" width="20" height="20" as="geometry" />
        </mxCell>
        <mxCell id="IS9TdEHiG9S3ljIj2pPj-223" style="edgeStyle=orthogonalEdgeStyle;rounded=0;orthogonalLoop=1;jettySize=auto;html=1;entryX=0.908;entryY=0.353;entryDx=0;entryDy=0;entryPerimeter=0;" edge="1" parent="1" source="IS9TdEHiG9S3ljIj2pPj-222" target="IS9TdEHiG9S3ljIj2pPj-222">
          <mxGeometry relative="1" as="geometry" />
        </mxCell>
        <mxCell id="IS9TdEHiG9S3ljIj2pPj-224" value="" style="edgeStyle=orthogonalEdgeStyle;rounded=0;orthogonalLoop=1;jettySize=auto;html=1;" edge="1" parent="1" source="IS9TdEHiG9S3ljIj2pPj-225" target="IS9TdEHiG9S3ljIj2pPj-227">
          <mxGeometry relative="1" as="geometry">
            <Array as="points">
              <mxPoint x="2085" y="2250" />
              <mxPoint x="1970" y="2250" />
            </Array>
          </mxGeometry>
        </mxCell>
        <mxCell id="IS9TdEHiG9S3ljIj2pPj-225" value="Halaman menu admin" style="rounded=1;whiteSpace=wrap;html=1;" vertex="1" parent="1">
          <mxGeometry x="2040" y="2180" width="90" height="60" as="geometry" />
        </mxCell>
        <mxCell id="IS9TdEHiG9S3ljIj2pPj-226" value="" style="edgeStyle=orthogonalEdgeStyle;rounded=0;orthogonalLoop=1;jettySize=auto;html=1;exitX=0.5;exitY=1;exitDx=0;exitDy=0;" edge="1" parent="1" source="IS9TdEHiG9S3ljIj2pPj-271" target="IS9TdEHiG9S3ljIj2pPj-229">
          <mxGeometry relative="1" as="geometry">
            <Array as="points">
              <mxPoint x="2100" y="2370" />
              <mxPoint x="1975" y="2370" />
            </Array>
          </mxGeometry>
        </mxCell>
        <mxCell id="IS9TdEHiG9S3ljIj2pPj-272" style="edgeStyle=orthogonalEdgeStyle;rounded=0;orthogonalLoop=1;jettySize=auto;html=1;exitX=1;exitY=0.5;exitDx=0;exitDy=0;entryX=0.5;entryY=0;entryDx=0;entryDy=0;" edge="1" parent="1" source="IS9TdEHiG9S3ljIj2pPj-227" target="IS9TdEHiG9S3ljIj2pPj-271">
          <mxGeometry relative="1" as="geometry" />
        </mxCell>
        <mxCell id="IS9TdEHiG9S3ljIj2pPj-227" value="Pilih konfirmasi pesanan" style="rounded=1;whiteSpace=wrap;html=1;" vertex="1" parent="1">
          <mxGeometry x="1940" y="2270" width="80" height="60" as="geometry" />
        </mxCell>
        <mxCell id="IS9TdEHiG9S3ljIj2pPj-266" value="" style="edgeStyle=orthogonalEdgeStyle;rounded=0;orthogonalLoop=1;jettySize=auto;html=1;" edge="1" parent="1" source="IS9TdEHiG9S3ljIj2pPj-229" target="IS9TdEHiG9S3ljIj2pPj-248">
          <mxGeometry relative="1" as="geometry" />
        </mxCell>
        <mxCell id="IS9TdEHiG9S3ljIj2pPj-229" value="memilih pesanan" style="rounded=1;whiteSpace=wrap;html=1;" vertex="1" parent="1">
          <mxGeometry x="1930" y="2380" width="90" height="60" as="geometry" />
        </mxCell>
        <mxCell id="IS9TdEHiG9S3ljIj2pPj-269" style="edgeStyle=orthogonalEdgeStyle;rounded=0;orthogonalLoop=1;jettySize=auto;html=1;exitX=1;exitY=0.5;exitDx=0;exitDy=0;entryX=0;entryY=0.5;entryDx=0;entryDy=0;" edge="1" parent="1" source="IS9TdEHiG9S3ljIj2pPj-233" target="IS9TdEHiG9S3ljIj2pPj-241">
          <mxGeometry relative="1" as="geometry" />
        </mxCell>
        <mxCell id="IS9TdEHiG9S3ljIj2pPj-233" value="Tolak pesanan" style="rounded=1;whiteSpace=wrap;html=1;" vertex="1" parent="1">
          <mxGeometry x="1917.5" y="2700" width="85" height="50" as="geometry" />
        </mxCell>
        <mxCell id="IS9TdEHiG9S3ljIj2pPj-235" value="Terima pesanan" style="rounded=1;whiteSpace=wrap;html=1;" vertex="1" parent="1">
          <mxGeometry x="1932.5" y="2600" width="90" height="55" as="geometry" />
        </mxCell>
        <mxCell id="IS9TdEHiG9S3ljIj2pPj-237" value="" style="edgeStyle=orthogonalEdgeStyle;rounded=0;orthogonalLoop=1;jettySize=auto;html=1;entryX=0.5;entryY=0;entryDx=0;entryDy=0;" edge="1" parent="1" source="IS9TdEHiG9S3ljIj2pPj-238" target="IS9TdEHiG9S3ljIj2pPj-220">
          <mxGeometry relative="1" as="geometry" />
        </mxCell>
        <mxCell id="IS9TdEHiG9S3ljIj2pPj-273" style="edgeStyle=orthogonalEdgeStyle;rounded=0;orthogonalLoop=1;jettySize=auto;html=1;exitX=1;exitY=0.5;exitDx=0;exitDy=0;entryX=1;entryY=0.5;entryDx=0;entryDy=0;" edge="1" parent="1" source="IS9TdEHiG9S3ljIj2pPj-238" target="IS9TdEHiG9S3ljIj2pPj-271">
          <mxGeometry relative="1" as="geometry" />
        </mxCell>
        <mxCell id="IS9TdEHiG9S3ljIj2pPj-238" value="Menyimpan data pesanan" style="rounded=1;whiteSpace=wrap;html=1;" vertex="1" parent="1">
          <mxGeometry x="2045" y="2770" width="90" height="60" as="geometry" />
        </mxCell>
        <mxCell id="IS9TdEHiG9S3ljIj2pPj-240" value="" style="edgeStyle=orthogonalEdgeStyle;rounded=0;orthogonalLoop=1;jettySize=auto;html=1;" edge="1" parent="1" source="IS9TdEHiG9S3ljIj2pPj-241" target="IS9TdEHiG9S3ljIj2pPj-238">
          <mxGeometry relative="1" as="geometry" />
        </mxCell>
        <mxCell id="IS9TdEHiG9S3ljIj2pPj-241" value="" style="rhombus;whiteSpace=wrap;html=1;" vertex="1" parent="1">
          <mxGeometry x="2075" y="2710" width="27.5" height="30" as="geometry" />
        </mxCell>
        <mxCell id="IS9TdEHiG9S3ljIj2pPj-242" value="No" style="text;html=1;align=center;verticalAlign=middle;whiteSpace=wrap;rounded=0;" vertex="1" parent="1">
          <mxGeometry x="1880" y="2540" width="60" height="30" as="geometry" />
        </mxCell>
        <mxCell id="IS9TdEHiG9S3ljIj2pPj-243" value="Yes" style="text;html=1;align=center;verticalAlign=middle;whiteSpace=wrap;rounded=0;" vertex="1" parent="1">
          <mxGeometry x="1960" y="2540" width="60" height="30" as="geometry" />
        </mxCell>
        <mxCell id="IS9TdEHiG9S3ljIj2pPj-265" value="" style="edgeStyle=orthogonalEdgeStyle;rounded=0;orthogonalLoop=1;jettySize=auto;html=1;" edge="1" parent="1" source="IS9TdEHiG9S3ljIj2pPj-248" target="IS9TdEHiG9S3ljIj2pPj-235">
          <mxGeometry relative="1" as="geometry" />
        </mxCell>
        <mxCell id="IS9TdEHiG9S3ljIj2pPj-267" style="edgeStyle=orthogonalEdgeStyle;rounded=0;orthogonalLoop=1;jettySize=auto;html=1;exitX=0;exitY=0.5;exitDx=0;exitDy=0;entryX=0;entryY=0.5;entryDx=0;entryDy=0;" edge="1" parent="1" source="IS9TdEHiG9S3ljIj2pPj-248" target="IS9TdEHiG9S3ljIj2pPj-233">
          <mxGeometry relative="1" as="geometry" />
        </mxCell>
        <mxCell id="IS9TdEHiG9S3ljIj2pPj-248" value="valid?" style="rhombus;whiteSpace=wrap;html=1;" vertex="1" parent="1">
          <mxGeometry x="1952.5" y="2470" width="50" height="50" as="geometry" />
        </mxCell>
        <mxCell id="IS9TdEHiG9S3ljIj2pPj-270" style="edgeStyle=orthogonalEdgeStyle;rounded=0;orthogonalLoop=1;jettySize=auto;html=1;exitX=1;exitY=0.5;exitDx=0;exitDy=0;entryX=0.507;entryY=0.166;entryDx=0;entryDy=0;entryPerimeter=0;" edge="1" parent="1" source="IS9TdEHiG9S3ljIj2pPj-235" target="IS9TdEHiG9S3ljIj2pPj-241">
          <mxGeometry relative="1" as="geometry" />
        </mxCell>
        <mxCell id="IS9TdEHiG9S3ljIj2pPj-271" value="Menampilkan halaman konfirmasi pesanan" style="rounded=1;whiteSpace=wrap;html=1;" vertex="1" parent="1">
          <mxGeometry x="2055" y="2300" width="90" height="60" as="geometry" />
        </mxCell>
      </root>
    </mxGraphModel>
  </diagram>
</mxfile>
